<?xml version="1.0" encoding="utf-8"?>
<!-- Generator: Adobe Illustrator 23.1.1, SVG Export Plug-In . SVG Version: 6.00 Build 0)  -->
<svg version="1.1" id="Layer_1" xmlns="http://www.w3.org/2000/svg" xmlns:xlink="http://www.w3.org/1999/xlink" x="0px" y="0px"
	 viewBox="0 0 86.7 62.4" style="enable-background:new 0 0 86.7 62.4;" xml:space="preserve">
<style type="text/css">
	.st0{fill:#020203;}
</style>
<g>
	<g>
		<path class="st0" d="M43.4,62.4v-3.8H5.6v-6.3h37.8v-3.8H3.8V37.1c0-3.7,3-6.8,6.8-6.8h32.8v-4.2H21.5V14.8h21.8V11H17.7v15.2
			h-7.2V3.8h32.8V0H6.7v27.3C2.8,28.8,0,32.7,0,37.1v15.1h1.8v10.1H43.4z"/>
		<path class="st0" d="M43.4,62.4v-3.8h37.8v-6.3H43.4v-3.8h39.6V37.1c0-3.7-3-6.8-6.8-6.8H43.4v-4.2h21.8V14.8H43.4V11H69v15.2h7.2
			V3.8H43.4V0L80,0v27.3c3.9,1.5,6.7,5.4,6.7,9.8v15.1h-1.8v10.1H43.4z"/>
		<rect x="41.1" y="13.8" class="st0" width="4.3" height="13.6"/>
	</g>
	<g>
		<path d="M29.7,41h-4.3v-2l4.3-5.2h2.1v5.3h1.1V41h-1.1v1.6h-2.1V41z M29.7,39.2v-2.7l-2.3,2.7H29.7z"/>
		<path d="M34,34h6.6v1.8h-3.9v1.5H40v1.7h-3.3v3.5H34V34z"/>
		<path d="M41.4,34h8.1v2.1h-2.7v6.5h-2.7v-6.5h-2.7V34z"/>
		<path d="M61.2,36l-2.4,0.3c-0.1-0.3-0.2-0.6-0.3-0.7s-0.3-0.2-0.5-0.2c-0.4,0-0.7,0.2-0.9,0.6c-0.2,0.3-0.3,0.9-0.3,1.8
			c0.3-0.3,0.6-0.5,0.9-0.6s0.6-0.2,1-0.2c0.8,0,1.4,0.3,1.9,0.8s0.8,1.2,0.8,2.1c0,0.6-0.1,1.1-0.4,1.6s-0.6,0.8-1.1,1.1
			s-1.1,0.4-1.8,0.4c-0.9,0-1.5-0.1-2.1-0.4s-0.9-0.8-1.2-1.4s-0.5-1.5-0.5-2.6c0-1.6,0.3-2.7,1-3.4s1.6-1.1,2.7-1.1
			c0.7,0,1.2,0.1,1.6,0.2s0.7,0.4,1,0.7S61.1,35.5,61.2,36z M56.8,39.8c0,0.5,0.1,0.8,0.4,1.1s0.5,0.4,0.9,0.4
			c0.3,0,0.6-0.1,0.8-0.4s0.3-0.6,0.3-1.1c0-0.5-0.1-0.9-0.3-1.1s-0.5-0.4-0.8-0.4c-0.3,0-0.6,0.1-0.8,0.4S56.8,39.3,56.8,39.8z"/>
	</g>
</g>
</svg>
