<?xml version="1.0" encoding="utf-8"?>
<!-- Generator: Adobe Illustrator 23.1.1, SVG Export Plug-In . SVG Version: 6.00 Build 0)  -->
<svg version="1.1" id="Layer_1" xmlns="http://www.w3.org/2000/svg" xmlns:xlink="http://www.w3.org/1999/xlink" x="0px" y="0px"
	 viewBox="0 0 77.7 62.4" style="enable-background:new 0 0 77.7 62.4;" xml:space="preserve">
<style type="text/css">
	.st0{fill:#020203;}
</style>
<g>
	<path class="st0" d="M43.4,62.4v-3.8H5.6v-6.3h37.8v-3.8H3.8V37.1c0-3.7,3-6.8,6.8-6.8h32.8v-4.2H21.5V14.8h21.8V11H17.7v15.2h-7.2
		V3.8h32.8V0H6.7v27.3C2.8,28.8,0,32.7,0,37.1v15.1h1.8v10.1H43.4z"/>
	<path class="st0" d="M34.4,62.4v-3.8h37.8v-6.3H34.4v-3.8h39.6V37.1c0-3.7-3-6.8-6.8-6.8H34.4v-4.2h21.8V14.8H34.4V11H60v15.2h7.2
		V3.8H34.4V0L71,0v27.3c3.9,1.5,6.7,5.4,6.7,9.8v15.1h-1.8v10.1H34.4z"/>
	<rect x="37.1" y="13.8" class="st0" width="4.3" height="13.6"/>
	<g>
		<path d="M31.4,41H27v-2l4.3-5.2h2.1v5.3h1.1V41h-1.1v1.6h-2.1V41z M31.4,39.2v-2.7l-2.3,2.7H31.4z"/>
		<path d="M35.7,34h6.6v1.8h-3.9v1.5h3.3v1.7h-3.3v3.5h-2.7V34z"/>
		<path d="M43.1,34h8.1v2.1h-2.7v6.5h-2.7v-6.5h-2.7V34z"/>
	</g>
</g>
</svg>
