<?xml version="1.0" encoding="utf-8"?>
<!-- Generator: Adobe Illustrator 23.1.1, SVG Export Plug-In . SVG Version: 6.00 Build 0)  -->
<svg version="1.1" id="Layer_1" xmlns="http://www.w3.org/2000/svg" xmlns:xlink="http://www.w3.org/1999/xlink" x="0px" y="0px"
	 viewBox="0 0 96.7 62.4" style="enable-background:new 0 0 96.7 62.4;" xml:space="preserve">
<style type="text/css">
	.st0{fill:#020203;}
</style>
<g>
	<g>
		<path class="st0" d="M53.4,62.4v-3.8H5.6v-6.3h47.8v-3.8H3.8V37.1c0-3.7,3-6.8,6.8-6.8h42.8v-4.2H21.5V14.8h31.8V11H17.7v15.2
			h-7.2V3.8h42.8V0H6.7v27.3C2.8,28.8,0,32.7,0,37.1v15.1h1.8v10.1H53.4z"/>
		<path class="st0" d="M53.4,62.4v-3.8h37.8v-6.3H53.4v-3.8h39.6V37.1c0-3.7-3-6.8-6.8-6.8H53.4v-4.2h21.8V14.8H53.4V11H79v15.2h7.2
			V3.8H53.4V0L90,0v27.3c3.9,1.5,6.7,5.4,6.7,9.8v15.1h-1.8v10.1H53.4z"/>
	</g>
	<rect x="46.2" y="13.4" class="st0" width="4.3" height="13.6"/>
	<g>
		<path d="M37.5,35.2h5.7v1.9h-3.8l-0.2,1.3c0.3-0.1,0.5-0.2,0.8-0.3s0.5-0.1,0.8-0.1c0.9,0,1.6,0.3,2.1,0.8s0.8,1.2,0.8,2
			c0,0.6-0.1,1.1-0.4,1.6s-0.7,0.9-1.2,1.2s-1.2,0.4-1.9,0.4c-0.6,0-1.1-0.1-1.5-0.2s-0.7-0.3-1-0.5s-0.5-0.5-0.7-0.7
			s-0.3-0.6-0.4-1l2.4-0.3c0.1,0.4,0.2,0.7,0.4,0.9s0.5,0.3,0.8,0.3c0.3,0,0.6-0.1,0.8-0.4s0.3-0.6,0.3-1.1c0-0.5-0.1-0.9-0.3-1.1
			s-0.5-0.4-0.9-0.4c-0.2,0-0.5,0.1-0.7,0.2c-0.2,0.1-0.3,0.2-0.5,0.4l-2-0.3L37.5,35.2z"/>
		<path d="M44.9,35.2h6.6V37h-3.9v1.5h3.3v1.7h-3.3v3.5h-2.7V35.2z"/>
		<path d="M52.3,35.2h8.1v2.1h-2.7v6.5H55v-6.5h-2.7V35.2z"/>
	</g>
</g>
</svg>
