<?xml version="1.0" encoding="utf-8"?>
<!-- Generator: Adobe Illustrator 23.1.1, SVG Export Plug-In . SVG Version: 6.00 Build 0)  -->
<svg version="1.1" id="Layer_1" xmlns="http://www.w3.org/2000/svg" xmlns:xlink="http://www.w3.org/1999/xlink" x="0px" y="0px"
	 viewBox="0 0 65 62.4" style="enable-background:new 0 0 65 62.4;" xml:space="preserve">
<style type="text/css">
	.st0{fill:#020203;}
</style>
<g>
	<g>
		<path class="st0" d="M65,37.1c0-4.5-2.8-8.3-6.7-9.8V0H6.7v27.3C2.8,28.8,0,32.7,0,37.1v15.1h1.8v10.1h61.5V52.2H65V37.1z
			 M43.4,26.2H21.5V14.8h21.8V26.2z M10.5,3.8h43.9v22.4h-7.2V11H17.7v15.2h-7.2L10.5,3.8z M3.8,37.1c0-3.7,3-6.8,6.8-6.8h43.8
			c3.7,0,6.8,3,6.8,6.8v11.3H3.8L3.8,37.1z M59.5,58.6H5.6v-6.3h53.9V58.6z"/>
	</g>
	<g>
		<path d="M22.4,38.2l-2.3-0.4c0.2-0.7,0.5-1.3,1.1-1.7s1.3-0.6,2.3-0.6c1.1,0,1.9,0.2,2.4,0.6s0.8,0.9,0.8,1.6c0,0.4-0.1,0.7-0.3,1
			s-0.5,0.6-0.9,0.8c0.3,0.1,0.6,0.2,0.8,0.3c0.3,0.2,0.5,0.4,0.7,0.7s0.2,0.6,0.2,1c0,0.5-0.1,1-0.4,1.4s-0.6,0.8-1.1,1.1
			s-1.1,0.4-1.9,0.4c-0.8,0-1.4-0.1-1.8-0.3s-0.8-0.5-1.1-0.8S20.2,42.5,20,42l2.4-0.3c0.1,0.5,0.2,0.8,0.4,1s0.4,0.3,0.8,0.3
			c0.3,0,0.6-0.1,0.8-0.4s0.3-0.5,0.3-0.9c0-0.4-0.1-0.7-0.3-0.9s-0.5-0.3-0.8-0.3c-0.2,0-0.4,0-0.8,0.1l0.1-1.7c0.1,0,0.2,0,0.3,0
			c0.3,0,0.6-0.1,0.8-0.3s0.3-0.4,0.3-0.7c0-0.3-0.1-0.5-0.2-0.6S23.7,37,23.4,37c-0.3,0-0.5,0.1-0.7,0.3S22.5,37.7,22.4,38.2z"/>
		<path d="M28.5,35.7h6.6v1.8h-3.9V39h3.3v1.7h-3.3v3.5h-2.7V35.7z"/>
		<path d="M35.9,35.7h8.1v2.1h-2.7v6.5h-2.7v-6.5h-2.7V35.7z"/>
	</g>
</g>
</svg>
