<?xml version="1.0" encoding="utf-8"?>
<!-- Generator: Adobe Illustrator 23.1.1, SVG Export Plug-In . SVG Version: 6.00 Build 0)  -->
<svg version="1.1" id="Layer_1" xmlns="http://www.w3.org/2000/svg" xmlns:xlink="http://www.w3.org/1999/xlink" x="0px" y="0px"
	 viewBox="0 0 102.3 62.4" style="enable-background:new 0 0 102.3 62.4;" xml:space="preserve">
<style type="text/css">
	.st0{fill:#020203;}
</style>
<g>
	<g>
		<path class="st0" d="M95.6,27.3V0H59h0H6.7v27.3C2.8,28.8,0,32.7,0,37.1v15.1h1.8v10.1h57.1h0h41.6V52.2h1.8V37.1
			C102.3,32.7,99.5,28.8,95.6,27.3z M10.5,3.8h48.4h0h32.8v22.4h-7.2V11H59h0H17.7v15.2h-7.2V3.8z M80.8,14.8v11.4H59h0H21.5V14.8
			h37.4h0H80.8z M96.7,58.6H59h0H5.6v-6.3h53.3h0h37.8V58.6z M98.5,48.4H59h0H3.8V37.1c0-3.7,3-6.8,6.8-6.8h48.4h0h32.8
			c3.7,0,6.8,3,6.8,6.8V48.4z"/>
		<rect x="49" y="14.8" class="st0" width="4.3" height="13.6"/>
	</g>
	<g>
		<path d="M46.1,36.9l-2.4,0.3c-0.1-0.3-0.2-0.6-0.3-0.7s-0.3-0.2-0.5-0.2c-0.4,0-0.7,0.2-0.9,0.6c-0.2,0.3-0.3,0.9-0.3,1.8
			c0.3-0.3,0.6-0.5,0.9-0.6s0.6-0.2,1-0.2c0.8,0,1.4,0.3,1.9,0.8s0.8,1.2,0.8,2.1c0,0.6-0.1,1.1-0.4,1.6s-0.6,0.8-1.1,1.1
			s-1.1,0.4-1.8,0.4c-0.9,0-1.5-0.1-2.1-0.4s-0.9-0.8-1.2-1.4s-0.5-1.5-0.5-2.6c0-1.6,0.3-2.7,1-3.4s1.6-1.1,2.7-1.1
			c0.7,0,1.2,0.1,1.6,0.2s0.7,0.4,1,0.7S46,36.5,46.1,36.9z M41.7,40.7c0,0.5,0.1,0.8,0.4,1.1s0.5,0.4,0.9,0.4
			c0.3,0,0.6-0.1,0.8-0.4s0.3-0.6,0.3-1.1c0-0.5-0.1-0.9-0.3-1.1s-0.5-0.4-0.8-0.4c-0.3,0-0.6,0.1-0.8,0.4S41.7,40.3,41.7,40.7z"/>
		<path d="M47.6,35h6.6v1.8h-3.9v1.5h3.3v1.7h-3.3v3.5h-2.7V35z"/>
		<path d="M55,35h8.1v2.1h-2.7v6.5h-2.7v-6.5H55V35z"/>
	</g>
</g>
</svg>
