<svg xmlns="http://www.w3.org/2000/svg" width="604.58" height="842.619" viewBox="0 0 604.58 842.619">
  <g id="Group_277" data-name="Group 277" transform="translate(323.623 -800.013)">
    <g id="Group_270" data-name="Group 270" transform="matrix(0.951, -0.309, 0.309, 0.951, -343.913, 951.638)" opacity="0.138">
      <g id="Group_249" data-name="Group 249">
        <path id="Path_257" data-name="Path 257" d="M485.291,129.408l-224-128a10.645,10.645,0,0,0-10.581,0l-224,128a10.665,10.665,0,0,0-5.376,9.259V373.334a10.665,10.665,0,0,0,5.376,9.259l224,128a10.645,10.645,0,0,0,10.582,0l224-128a10.665,10.665,0,0,0,5.376-9.259V138.667a10.669,10.669,0,0,0-5.377-9.259Z" fill="#e0caff"/>
      </g>
    </g>
    <g id="Group_271" data-name="Group 271" transform="matrix(0.966, -0.259, 0.259, 0.966, 63.322, 1370.733)" opacity="0.353">
      <g id="Group_251" data-name="Group 251" transform="translate(21.334 0)">
        <path id="Path_258" data-name="Path 258" d="M130.063,30.327,77.568.33a2.5,2.5,0,0,0-2.48,0l-52.495,30a2.5,2.5,0,0,0-1.26,2.17V87.492a2.5,2.5,0,0,0,1.26,2.17l52.495,30a2.495,2.495,0,0,0,2.48,0l52.495-30a2.5,2.5,0,0,0,1.26-2.17V32.5a2.5,2.5,0,0,0-1.26-2.17Z" transform="translate(-21.334 0)" fill="#6c4db5"/>
      </g>
    </g>
    <g id="Group_272" data-name="Group 272" transform="matrix(0.966, -0.259, 0.259, 0.966, -190.825, 1418.639)" opacity="0.353">
      <g id="Group_251-2" data-name="Group 251" transform="translate(21.334 0)">
        <path id="Path_258-2" data-name="Path 258" d="M236.648,60.056,132.694.654a4.94,4.94,0,0,0-4.91,0L23.829,60.056a4.95,4.95,0,0,0-2.495,4.3v108.9a4.95,4.95,0,0,0,2.495,4.3l103.955,59.4a4.94,4.94,0,0,0,4.911,0l103.955-59.4a4.95,4.95,0,0,0,2.495-4.3V64.353a4.951,4.951,0,0,0-2.5-4.3Z" transform="translate(-21.334 0)" fill="#e0caff"/>
      </g>
    </g>
  </g>
</svg>
