<svg xmlns="http://www.w3.org/2000/svg" width="255.366" height="51.266" viewBox="0 0 255.366 51.266">
  <g id="Group_246" data-name="Group 246" transform="translate(-353.334 -531.772)">
    <g id="Group_244" data-name="Group 244" transform="translate(353.334 531.772)">
      <g id="Group_241" data-name="Group 241" transform="translate(0 9.281)">
        <path id="Path_212" data-name="Path 212" d="M353.334,555.626a.462.462,0,0,1,.1-.317.4.4,0,0,1,.313-.119h6.041a4.119,4.119,0,0,1,1.229.179,4.2,4.2,0,0,1,1.059.5,4.328,4.328,0,0,1,.87.756,4.882,4.882,0,0,1,.657.951,4.794,4.794,0,0,1,.411,1.073,4.648,4.648,0,0,1-.165,2.8,4.578,4.578,0,0,1-.874,1.447,4.47,4.47,0,0,1-1.362,1.026,4.014,4.014,0,0,1-1.759.4h-2.865v4.5q0,.407-.435.407H353.75a.442.442,0,0,1-.3-.1.388.388,0,0,1-.113-.307Zm7.118,4.141a1.717,1.717,0,0,0-.1-.568,1.577,1.577,0,0,0-.289-.505,1.522,1.522,0,0,0-.458-.364,1.286,1.286,0,0,0-.61-.142h-2v3.158h2a1.363,1.363,0,0,0,.614-.137,1.425,1.425,0,0,0,.458-.355,1.553,1.553,0,0,0,.284-.5A1.762,1.762,0,0,0,360.452,559.767Z" transform="translate(-353.334 -555.181)" fill="#2f1d5d"/>
        <path id="Path_213" data-name="Path 213" d="M389.331,563.631a3.218,3.218,0,0,0,.194,1.188,2.238,2.238,0,0,0,.512.795,1.942,1.942,0,0,0,.739.449,2.723,2.723,0,0,0,.876.142,2.406,2.406,0,0,0,.895-.166,2.068,2.068,0,0,0,.739-.492,2.349,2.349,0,0,0,.5-.809,3.073,3.073,0,0,0,.185-1.107v-8.024a.4.4,0,0,1,.119-.293.416.416,0,0,1,.316-.123h2.761a.45.45,0,0,1,.34.128.4.4,0,0,1,.123.288v7.97a7,7,0,0,1-.487,2.779,4.778,4.778,0,0,1-1.309,1.811,5.021,5.021,0,0,1-1.905.983,8.537,8.537,0,0,1-2.274.3,8.339,8.339,0,0,1-2.278-.307,5.052,5.052,0,0,1-1.91-1,4.865,4.865,0,0,1-1.309-1.816,6.868,6.868,0,0,1-.487-2.746v-7.97a.431.431,0,0,1,.108-.288.339.339,0,0,1,.269-.128h2.829a.5.5,0,0,1,.3.119.359.359,0,0,1,.156.3Z" transform="translate(-372.843 -555.181)" fill="#2f1d5d"/>
        <path id="Path_214" data-name="Path 214" d="M422.779,555.626a.461.461,0,0,1,.1-.317.394.394,0,0,1,.313-.119H429.3a4.59,4.59,0,0,1,1.825.364,4.753,4.753,0,0,1,1.484.987,4.615,4.615,0,0,1,1,1.461,4.414,4.414,0,0,1,.364,1.782,4.24,4.24,0,0,1-.175,1.224,4.572,4.572,0,0,1-.487,1.087,4.632,4.632,0,0,1-.742.916,4.865,4.865,0,0,1-.941.7l2.429,4.576c.044.088.1.192.17.312a.652.652,0,0,1,.1.313.28.28,0,0,1-.1.231.414.414,0,0,1-.269.081H430.72a.468.468,0,0,1-.288-.095.426.426,0,0,1-.165-.255l-2.3-4.321h-1.532v4.264q0,.407-.435.407H423.2a.441.441,0,0,1-.3-.1.388.388,0,0,1-.113-.307Zm7.4,4.2a1.639,1.639,0,0,0-.1-.568,1.83,1.83,0,0,0-.293-.519,1.714,1.714,0,0,0-.454-.4,1.566,1.566,0,0,0-.586-.209c-.176-.012-.342-.024-.5-.033s-.323-.014-.505-.014h-1.305v3.47h1.74c.114,0,.214,0,.3-.01s.186-.015.293-.028a1.491,1.491,0,0,0,.6-.194,1.555,1.555,0,0,0,.445-.388,1.719,1.719,0,0,0,.274-.52A1.882,1.882,0,0,0,430.181,559.824Z" transform="translate(-395.23 -555.181)" fill="#2f1d5d"/>
        <path id="Path_215" data-name="Path 215" d="M455.808,555.626a.462.462,0,0,1,.1-.317.394.394,0,0,1,.312-.119h6.041a4.121,4.121,0,0,1,1.229.179,4.2,4.2,0,0,1,1.059.5,4.327,4.327,0,0,1,.87.756,4.884,4.884,0,0,1,.657.951,4.811,4.811,0,0,1,.411,1.073,4.649,4.649,0,0,1-.165,2.8,4.578,4.578,0,0,1-.874,1.447,4.475,4.475,0,0,1-1.361,1.026,4.015,4.015,0,0,1-1.759.4h-2.865v4.5q0,.407-.435.407h-2.808a.44.44,0,0,1-.3-.1.388.388,0,0,1-.113-.307Zm7.119,4.141a1.718,1.718,0,0,0-.1-.568,1.584,1.584,0,0,0-.289-.505,1.525,1.525,0,0,0-.458-.364,1.286,1.286,0,0,0-.61-.142h-2v3.158h2a1.363,1.363,0,0,0,.615-.137,1.426,1.426,0,0,0,.458-.355,1.563,1.563,0,0,0,.284-.5A1.762,1.762,0,0,0,462.927,559.767Z" transform="translate(-415.156 -555.181)" fill="#2f1d5d"/>
        <path id="Path_216" data-name="Path 216" d="M487.432,555.583a.414.414,0,0,1,.113-.293.4.4,0,0,1,.312-.123h2.8a.439.439,0,0,1,.293.114.4.4,0,0,1,.142.3v10.286h5.2a.421.421,0,0,1,.293.113.405.405,0,0,1,.123.312v2.487a.45.45,0,0,1-.109.293.4.4,0,0,1-.307.142h-8.443a.367.367,0,0,1-.416-.416Z" transform="translate(-434.235 -555.167)" fill="#2f1d5d"/>
        <path id="Path_217" data-name="Path 217" d="M516.364,555.626a.447.447,0,0,1,.108-.317.4.4,0,0,1,.307-.119h9.379a.417.417,0,0,1,.321.122.467.467,0,0,1,.113.33v2.338a.488.488,0,0,1-.113.306.393.393,0,0,1-.331.146h-6.126v2.345h4.726a.5.5,0,0,1,.3.085.326.326,0,0,1,.118.283v2.043a.392.392,0,0,1-.1.255.373.373,0,0,1-.3.123h-4.736v2.42h6.353a.38.38,0,0,1,.426.434V568.8a.235.235,0,0,1-.076.17q-.038.264-.388.264h-9.559a.438.438,0,0,1-.3-.1.386.386,0,0,1-.113-.307Z" transform="translate(-451.689 -555.181)" fill="#2f1d5d"/>
      </g>
      <g id="Group_242" data-name="Group 242" transform="translate(76.763)">
        <path id="Path_218" data-name="Path 218" d="M546.839,553.324a.684.684,0,0,1,.115-.479.585.585,0,0,1,.446-.211l8.9-.714a6.081,6.081,0,0,1,1.831.119,6.208,6.208,0,0,1,1.619.606,6.4,6.4,0,0,1,1.37,1.011,7.21,7.21,0,0,1,1.08,1.322,7.09,7.09,0,0,1,.733,1.532,6.828,6.828,0,0,1,.344,1.661,6.9,6.9,0,0,1-.256,2.486,6.753,6.753,0,0,1-1.117,2.235,6.59,6.59,0,0,1-1.884,1.671,5.924,5.924,0,0,1-2.543.8l-4.219.339.532,6.628q.048.6-.592.65l-4.135.332a.655.655,0,0,1-.458-.111.573.573,0,0,1-.2-.439Zm10.974,5.257a2.537,2.537,0,0,0-.213-.824,2.331,2.331,0,0,0-.485-.71,2.249,2.249,0,0,0-.718-.482,1.9,1.9,0,0,0-.915-.137l-2.953.237.374,4.651,2.952-.237a2.009,2.009,0,0,0,.889-.275,2.109,2.109,0,0,0,.633-.576,2.313,2.313,0,0,0,.359-.772A2.615,2.615,0,0,0,557.813,558.581Z" transform="translate(-546.836 -543.914)" fill="#9077b3"/>
        <path id="Path_219" data-name="Path 219" d="M594.644,548.915a.664.664,0,0,1,.123-.479.584.584,0,0,1,.438-.211l13.814-1.109a.614.614,0,0,1,.487.142.688.688,0,0,1,.207.472l.277,3.444a.725.725,0,0,1-.131.465.58.58,0,0,1-.47.254l-9.023.724.277,3.454,6.961-.559a.733.733,0,0,1,.449.09.481.481,0,0,1,.207.4l.242,3.008a.577.577,0,0,1-.123.388.551.551,0,0,1-.431.217l-6.976.56.286,3.564,9.357-.751a.562.562,0,0,1,.678.589l.281,3.5a.345.345,0,0,1-.092.259q-.024.394-.54.435l-14.079,1.13a.648.648,0,0,1-.456-.111.571.571,0,0,1-.2-.439Z" transform="translate(-575.676 -541.027)" fill="#9077b3"/>
        <path id="Path_220" data-name="Path 220" d="M641.522,554.971a10.613,10.613,0,0,1,1.017-5.5,10.8,10.8,0,0,1,1.492-2.3,10.433,10.433,0,0,1,2.019-1.837,10.966,10.966,0,0,1,2.457-1.276,10.706,10.706,0,0,1,5.663-.455,10.9,10.9,0,0,1,2.636.867,10.605,10.605,0,0,1,2.294,1.49A10.482,10.482,0,0,1,660.938,548a11.062,11.062,0,0,1,1.278,2.462,10.721,10.721,0,0,1,.455,5.667,10.764,10.764,0,0,1-.87,2.621,10.5,10.5,0,0,1-1.492,2.278,10.979,10.979,0,0,1-2.028,1.838,10.694,10.694,0,0,1-10.756.863,10.827,10.827,0,0,1-4.124-3.5,10.45,10.45,0,0,1-1.276-2.449A10.615,10.615,0,0,1,641.522,554.971Zm5.388-.447a5.931,5.931,0,0,0,.563,2.127,5.339,5.339,0,0,0,1.232,1.66,5.1,5.1,0,0,0,1.755,1.036,5.512,5.512,0,0,0,4.234-.34,5.082,5.082,0,0,0,1.576-1.3,5.321,5.321,0,0,0,.951-1.835,6.175,6.175,0,0,0-.346-4.309,5.392,5.392,0,0,0-1.233-1.674,5.207,5.207,0,0,0-7.564.607,5.418,5.418,0,0,0-.951,1.849A5.95,5.95,0,0,0,646.91,554.525Z" transform="translate(-603.938 -538.797)" fill="#9077b3"/>
        <path id="Path_221" data-name="Path 221" d="M701.2,540.932a.685.685,0,0,1,.116-.479.585.585,0,0,1,.445-.211l8.9-.714a6.088,6.088,0,0,1,1.832.119,6.183,6.183,0,0,1,1.618.606,6.4,6.4,0,0,1,1.371,1.011,7.153,7.153,0,0,1,1.813,2.854,6.933,6.933,0,0,1-1.029,6.382,6.6,6.6,0,0,1-1.885,1.672,5.928,5.928,0,0,1-2.542.8l-4.219.338.532,6.628q.048.6-.593.651l-4.136.332a.653.653,0,0,1-.457-.111.57.57,0,0,1-.2-.439Zm10.976,5.257a2.524,2.524,0,0,0-.214-.824,2.325,2.325,0,0,0-.484-.71,2.285,2.285,0,0,0-.719-.482,1.9,1.9,0,0,0-.916-.137l-2.951.237.373,4.651,2.951-.237a2.011,2.011,0,0,0,.89-.275,2.108,2.108,0,0,0,.634-.576,2.338,2.338,0,0,0,.358-.772A2.6,2.6,0,0,0,712.18,546.189Z" transform="translate(-639.963 -536.438)" fill="#9077b3"/>
        <path id="Path_222" data-name="Path 222" d="M747.776,537.741a.612.612,0,0,1,.133-.445.591.591,0,0,1,.444-.219l4.121-.331a.656.656,0,0,1,.446.133.6.6,0,0,1,.244.429l1.216,15.15,7.658-.615a.624.624,0,0,1,.446.131.6.6,0,0,1,.217.445l.294,3.663a.668.668,0,0,1-.125.444.6.6,0,0,1-.437.246l-12.434,1a.543.543,0,0,1-.662-.564Z" transform="translate(-668.061 -534.772)" fill="#9077b3"/>
        <path id="Path_223" data-name="Path 223" d="M806.366,547.5l-9.357.751-.286-3.564,6.977-.56a.551.551,0,0,0,.431-.217.575.575,0,0,0,.123-.388l-.242-3.008a.481.481,0,0,0-.208-.4.73.73,0,0,0-.448-.09l-6.963.559-.277-3.454,9.023-.724a.59.59,0,0,0,.4-.191,1.546,1.546,0,0,1-.919-1.342,1.5,1.5,0,0,1-.314-.054,1.478,1.478,0,0,1-1.012-1.828,1.5,1.5,0,0,1,.135-.321,1.316,1.316,0,0,1-.469-.9l-12.006.964a.585.585,0,0,0-.438.211.665.665,0,0,0-.122.479l1.56,19.438a.577.577,0,0,0,.2.439.653.653,0,0,0,.457.111l14.079-1.13c.342-.027.522-.173.54-.435a.346.346,0,0,0,.09-.259l-.281-3.5A.561.561,0,0,0,806.366,547.5Z" transform="translate(-693.773 -531.772)" fill="#9077b3"/>
      </g>
      <g id="Group_243" data-name="Group 243" transform="translate(193.056 9.394)">
        <path id="Path_224" data-name="Path 224" d="M839.985,555.888a.452.452,0,0,1,.108-.317.4.4,0,0,1,.307-.118h9.379a.416.416,0,0,1,.321.122.467.467,0,0,1,.114.33v2.338a.491.491,0,0,1-.114.306.393.393,0,0,1-.331.146h-6.126v2.345h4.728a.493.493,0,0,1,.3.085.327.327,0,0,1,.119.283v2.043a.392.392,0,0,1-.1.255.373.373,0,0,1-.3.123h-4.737v2.419H850a.38.38,0,0,1,.426.434v2.375a.231.231,0,0,1-.075.169c-.025.177-.155.265-.388.265H840.4a.443.443,0,0,1-.3-.1.389.389,0,0,1-.113-.307Z" transform="translate(-839.985 -555.453)" fill="#2f1d5d"/>
        <path id="Path_225" data-name="Path 225" d="M874.431,555.822a.3.3,0,0,1,.062-.123.744.744,0,0,1,.128-.122.68.68,0,0,1,.16-.09.452.452,0,0,1,.161-.033h2.421a.4.4,0,0,1,.274.1,1.243,1.243,0,0,1,.17.174l.237.539,4.964,12.8a.278.278,0,0,1-.029.307.46.46,0,0,1-.359.119h-2.713a.589.589,0,0,1-.336-.081.514.514,0,0,1-.185-.269q-.189-.482-.369-.96c-.119-.317-.24-.638-.359-.959h-5.02c-.119.321-.241.642-.364.959s-.244.639-.364.96a.472.472,0,0,1-.481.35h-2.79a.459.459,0,0,1-.3-.095.224.224,0,0,1-.043-.283Zm1.721,4.046q-.181.482-.364,1.041t-.364,1.125q-.18.568-.364,1.12t-.364,1.035h2.9Z" transform="translate(-857.652 -555.453)" fill="#2f1d5d"/>
        <path id="Path_226" data-name="Path 226" d="M902.04,555.868a.384.384,0,0,1,.128-.3.46.46,0,0,1,.317-.113h10.172a.477.477,0,0,1,.3.1.428.428,0,0,1,.152.312v2.347a.531.531,0,0,1-.119.325.394.394,0,0,1-.336.156H909.4v10.352a.455.455,0,0,1-.123.308.409.409,0,0,1-.321.137H906.18a.446.446,0,0,1-.3-.128.411.411,0,0,1-.141-.317V558.7h-3.252a.439.439,0,0,1-.317-.122.473.473,0,0,1-.128-.358Z" transform="translate(-877.422 -555.453)" fill="#2f1d5d"/>
        <path id="Path_227" data-name="Path 227" d="M935.713,555.888a.453.453,0,0,1,.108-.317.4.4,0,0,1,.307-.118h9.379a.416.416,0,0,1,.321.122.467.467,0,0,1,.114.33v2.338a.49.49,0,0,1-.114.306.393.393,0,0,1-.331.146h-6.126v2.345H944.1a.493.493,0,0,1,.3.085.326.326,0,0,1,.119.283v2.043a.392.392,0,0,1-.1.255.373.373,0,0,1-.3.123h-4.737v2.419h6.353a.38.38,0,0,1,.426.434v2.375a.231.231,0,0,1-.075.169c-.025.177-.155.265-.388.265h-9.559a.442.442,0,0,1-.3-.1.389.389,0,0,1-.113-.307Z" transform="translate(-897.737 -555.453)" fill="#2f1d5d"/>
        <path id="Path_228" data-name="Path 228" d="M967.933,555.888a.46.46,0,0,1,.1-.317.394.394,0,0,1,.312-.118h6.108a4.6,4.6,0,0,1,1.825.364,4.771,4.771,0,0,1,1.484.988,4.612,4.612,0,0,1,1,1.461,4.409,4.409,0,0,1,.364,1.782,4.229,4.229,0,0,1-.174,1.225,4.583,4.583,0,0,1-.487,1.087,4.633,4.633,0,0,1-.742.917,4.856,4.856,0,0,1-.941.7l2.43,4.576q.066.133.171.312a.649.649,0,0,1,.1.313.282.282,0,0,1-.1.231.415.415,0,0,1-.27.081h-3.242a.468.468,0,0,1-.288-.095.428.428,0,0,1-.166-.255l-2.3-4.321h-1.532v4.264q0,.406-.435.407h-2.807a.442.442,0,0,1-.3-.1.387.387,0,0,1-.113-.307Zm7.4,4.2a1.638,1.638,0,0,0-.1-.568,1.855,1.855,0,0,0-.294-.52,1.707,1.707,0,0,0-.453-.4,1.573,1.573,0,0,0-.587-.208l-.5-.033c-.154-.01-.322-.014-.505-.014h-1.305v3.47h1.74c.113,0,.214,0,.3-.01s.186-.015.293-.029a1.49,1.49,0,0,0,.595-.193,1.543,1.543,0,0,0,.444-.388,1.712,1.712,0,0,0,.275-.521A1.894,1.894,0,0,0,975.335,560.086Z" transform="translate(-917.175 -555.453)" fill="#2f1d5d"/>
      </g>
    </g>
    <g id="Group_245" data-name="Group 245" transform="translate(353.334 568.992)">
      <path id="Path_229" data-name="Path 229" d="M360.607,628.381a.355.355,0,0,1,.22.075.3.3,0,0,1,.112.224v.685a.354.354,0,0,1-.082.234.306.306,0,0,1-.251.1h-2.82v8.439a.326.326,0,0,1-.081.217.287.287,0,0,1-.231.095h-.685a.311.311,0,0,1-.217-.088.293.293,0,0,1-.095-.224V629.7h-2.834a.316.316,0,0,1-.223-.081.324.324,0,0,1-.088-.251v-.685a.28.28,0,0,1,.088-.217.316.316,0,0,1,.223-.081Z" transform="translate(-353.334 -627.276)" fill="#757474"/>
      <path id="Path_230" data-name="Path 230" d="M377.665,629.026a3.147,3.147,0,0,1,.407-.424,2.211,2.211,0,0,1,.485-.315,2.534,2.534,0,0,1,.607-.2,4.071,4.071,0,0,1,.786-.068,3.254,3.254,0,0,1,2.464,1.075,3.552,3.552,0,0,1,.7,1.169,4.121,4.121,0,0,1,.248,1.437v4.6a.463.463,0,0,1-.119.346.416.416,0,0,1-.3.115h-.5c-.167,0-.275-.034-.322-.1a.61.61,0,0,1-.071-.339V631.7a2.664,2.664,0,0,0-.139-.831,2.471,2.471,0,0,0-.413-.769,2.139,2.139,0,0,0-.685-.562,2,2,0,0,0-.946-.217,2.324,2.324,0,0,0-.78.139,2.2,2.2,0,0,0-.708.41,2.09,2.09,0,0,0-.512.671,2.053,2.053,0,0,0-.2.916v5.009a.264.264,0,0,1-.3.3h-.7q-.319,0-.319-.3V625.894a.281.281,0,0,1,.088-.217.3.3,0,0,1,.21-.081h.7a.3.3,0,0,1,.227.088.294.294,0,0,1,.085.21Z" transform="translate(-367.219 -625.596)" fill="#757474"/>
      <path id="Path_231" data-name="Path 231" d="M404.318,638.474a1.217,1.217,0,0,1,.132-.1.229.229,0,0,1,.342.075l.22.3c.057.077.1.138.139.183s.063.086.081.108a.415.415,0,0,1,.054.084.234.234,0,0,1,.02.1.286.286,0,0,1-.058.159,1,1,0,0,1-.2.2,5.383,5.383,0,0,1-.607.417,4.608,4.608,0,0,1-.661.323,4.328,4.328,0,0,1-2.7.125,4.467,4.467,0,0,1-1.061-.454,4.653,4.653,0,0,1-1.617-1.6,4.391,4.391,0,0,1-.461-1.061,4.222,4.222,0,0,1-.163-1.176,4.529,4.529,0,0,1,.586-2.244,4.322,4.322,0,0,1,1.579-1.6,4.452,4.452,0,0,1,1.078-.451,4.592,4.592,0,0,1,1.223-.16,4.512,4.512,0,0,1,1.01.115,4.659,4.659,0,0,1,.962.336,4.368,4.368,0,0,1,.864.545,4.269,4.269,0,0,1,.722.746,4.041,4.041,0,0,1,.644,1.329,6.038,6.038,0,0,1,.2,1.715q0,.318-.3.319H399.2a3.092,3.092,0,0,0,.4,1,3.42,3.42,0,0,0,.691.8,3.139,3.139,0,0,0,.9.536,2.793,2.793,0,0,0,1.023.193,2.935,2.935,0,0,0,.674-.071,2.723,2.723,0,0,0,.549-.19,2.952,2.952,0,0,0,.458-.271q.21-.153.407-.315Zm-3.715-5.016a3.417,3.417,0,0,0-.888.871,3.1,3.1,0,0,0-.509,1.156h6.128a2.666,2.666,0,0,0-.349-1.024,2.841,2.841,0,0,0-.688-.786,3.17,3.17,0,0,0-.932-.5,3.255,3.255,0,0,0-1.074-.18,3.365,3.365,0,0,0-.871.115A3.076,3.076,0,0,0,400.6,633.458Z" transform="translate(-380.146 -629.276)" fill="#757474"/>
      <path id="Path_232" data-name="Path 232" d="M442.5,631.113a2.681,2.681,0,0,1-.227,1.1,2.552,2.552,0,0,1-.634.881,2.738,2.738,0,0,1,.566.44,2.934,2.934,0,0,1,.437.566,2.718,2.718,0,0,1,.38,1.393,2.968,2.968,0,0,1-.217,1.126,3.043,3.043,0,0,1-.6.942,2.873,2.873,0,0,1-.9.647,2.628,2.628,0,0,1-1.122.241h-4.426a.335.335,0,0,1-.224-.075.278.278,0,0,1-.088-.224v-9.443c0-.217.1-.325.312-.325h3.979a2.8,2.8,0,0,1,1.091.21,2.757,2.757,0,0,1,.875.576,2.641,2.641,0,0,1,.583.864A2.748,2.748,0,0,1,442.5,631.113Zm-1.328,0a1.553,1.553,0,0,0-.106-.576,1.325,1.325,0,0,0-.756-.756,1.562,1.562,0,0,0-.583-.105h-2.983v2.942h2.969a1.457,1.457,0,0,0,.58-.115,1.386,1.386,0,0,0,.461-.319,1.508,1.508,0,0,0,.3-.478A1.544,1.544,0,0,0,441.175,631.113Zm-4.427,2.8v3.24h3.43a1.323,1.323,0,0,0,.59-.136,1.589,1.589,0,0,0,.484-.363,1.735,1.735,0,0,0,.444-1.162,1.551,1.551,0,0,0-.119-.6,1.657,1.657,0,0,0-.321-.5,1.53,1.53,0,0,0-.482-.346,1.4,1.4,0,0,0-.6-.129Z" transform="translate(-402.876 -627.276)" fill="#757474"/>
      <path id="Path_233" data-name="Path 233" d="M464.105,638.474a1.225,1.225,0,0,1,.132-.1.229.229,0,0,1,.342.075l.22.3c.057.077.1.138.139.183s.063.086.081.108a.4.4,0,0,1,.054.084.233.233,0,0,1,.02.1.289.289,0,0,1-.058.159,1.035,1.035,0,0,1-.2.2,5.311,5.311,0,0,1-.607.417,4.585,4.585,0,0,1-.661.323,4.328,4.328,0,0,1-2.7.125,4.464,4.464,0,0,1-1.06-.454,4.664,4.664,0,0,1-1.617-1.6,4.42,4.42,0,0,1-.461-1.061,4.238,4.238,0,0,1-.163-1.176,4.53,4.53,0,0,1,.586-2.244,4.322,4.322,0,0,1,1.579-1.6,4.453,4.453,0,0,1,1.078-.451,4.594,4.594,0,0,1,1.224-.16,4.521,4.521,0,0,1,1.01.115,4.664,4.664,0,0,1,.962.336,4.365,4.365,0,0,1,.864.545,4.286,4.286,0,0,1,.722.746,4.047,4.047,0,0,1,.644,1.329,6.053,6.053,0,0,1,.2,1.715q0,.318-.3.319h-7.145a3.074,3.074,0,0,0,.4,1,3.421,3.421,0,0,0,.691.8,3.148,3.148,0,0,0,.9.536,2.8,2.8,0,0,0,1.024.193,2.933,2.933,0,0,0,.674-.071,2.728,2.728,0,0,0,.549-.19,2.97,2.97,0,0,0,.457-.271q.209-.153.407-.315Zm-3.715-5.016a3.417,3.417,0,0,0-.888.871,3.093,3.093,0,0,0-.508,1.156h6.128a2.654,2.654,0,0,0-.349-1.024,2.836,2.836,0,0,0-.688-.786,3.17,3.17,0,0,0-.932-.5,3.255,3.255,0,0,0-1.074-.18,3.362,3.362,0,0,0-.871.115A3.079,3.079,0,0,0,460.39,633.458Z" transform="translate(-416.216 -629.276)" fill="#757474"/>
      <path id="Path_234" data-name="Path 234" d="M491.26,636.777a.264.264,0,0,1-.3-.3v-.82a4.285,4.285,0,0,1-1.356.935,4.125,4.125,0,0,1-1.674.338,4.29,4.29,0,0,1-1.169-.159,4.465,4.465,0,0,1-1.962-1.149,4.59,4.59,0,0,1-.7-.9,4.392,4.392,0,0,1-.454-1.061,4.427,4.427,0,0,1,0-2.352,4.466,4.466,0,0,1,.454-1.064,4.559,4.559,0,0,1,.7-.9,4.618,4.618,0,0,1,.9-.7,4.4,4.4,0,0,1,1.058-.454,4.279,4.279,0,0,1,1.173-.159,4.084,4.084,0,0,1,1.674.343,4.327,4.327,0,0,1,1.356.939v-3.4a.292.292,0,0,1,.085-.21.3.3,0,0,1,.227-.088h.7a.3.3,0,0,1,.21.081.282.282,0,0,1,.088.217v10.568c0,.2-.106.3-.319.3Zm-.23-4.291a3.112,3.112,0,0,0-.244-1.213,3.379,3.379,0,0,0-.663-1.027,3.221,3.221,0,0,0-.985-.708,2.8,2.8,0,0,0-1.2-.265,2.761,2.761,0,0,0-1.2.265,3.2,3.2,0,0,0-.975.708,3.347,3.347,0,0,0-.656,1.027,3.195,3.195,0,0,0,0,2.434,3.253,3.253,0,0,0,.656,1.01,3.2,3.2,0,0,0,.975.691,2.825,2.825,0,0,0,1.2.257,2.869,2.869,0,0,0,1.2-.257,3.228,3.228,0,0,0,.985-.691,3.284,3.284,0,0,0,.663-1.01A3.1,3.1,0,0,0,491.029,632.486Z" transform="translate(-431.854 -625.606)" fill="#757474"/>
      <path id="Path_235" data-name="Path 235" d="M527.717,639.271a4.326,4.326,0,0,1-1.356.939,4.085,4.085,0,0,1-1.674.343,4.288,4.288,0,0,1-1.169-.159,4.367,4.367,0,0,1-1.061-.454,4.6,4.6,0,0,1-.9-.7,4.554,4.554,0,0,1-.7-.9,4.455,4.455,0,0,1-.454-1.065,4.427,4.427,0,0,1,0-2.352,4.384,4.384,0,0,1,.454-1.061,4.618,4.618,0,0,1,.7-.9,4.531,4.531,0,0,1,.9-.7,4.467,4.467,0,0,1,1.058-.451,4.277,4.277,0,0,1,1.173-.159,4.09,4.09,0,0,1,1.674.342,4.331,4.331,0,0,1,1.356.939V632.1a.264.264,0,0,1,.3-.3h.7q.319,0,.319.3v8.019a.281.281,0,0,1-.089.217.3.3,0,0,1-.21.081h-.7a.3.3,0,0,1-.227-.088.293.293,0,0,1-.084-.21Zm.068-3.179a3.11,3.11,0,0,0-.244-1.217,3.269,3.269,0,0,0-.664-1.014,3.22,3.22,0,0,0-.985-.692,2.871,2.871,0,0,0-1.2-.257,2.825,2.825,0,0,0-1.2.257,3.2,3.2,0,0,0-.975.692,3.236,3.236,0,0,0-.657,1.014,3.186,3.186,0,0,0,0,2.43,3.347,3.347,0,0,0,.657,1.027,3.2,3.2,0,0,0,.975.708,2.758,2.758,0,0,0,1.2.264,2.8,2.8,0,0,0,1.2-.264,3.214,3.214,0,0,0,.985-.708,3.381,3.381,0,0,0,.664-1.027A3.118,3.118,0,0,0,527.784,636.092Z" transform="translate(-454.028 -629.245)" fill="#757474"/>
      <path id="Path_236" data-name="Path 236" d="M548.6,632.987a4.778,4.778,0,0,1,.427-.464,3.116,3.116,0,0,1,.532-.407,2.946,2.946,0,0,1,.655-.292,2.716,2.716,0,0,1,.806-.112,3.538,3.538,0,0,1,1.471.288,3.052,3.052,0,0,1,1.068.787,3.382,3.382,0,0,1,.651,1.169,4.583,4.583,0,0,1,.22,1.437V640a.463.463,0,0,1-.119.346.417.417,0,0,1-.3.115h-.5q-.251,0-.322-.1a.611.611,0,0,1-.071-.339v-4.623a3.246,3.246,0,0,0-.112-.831,2.256,2.256,0,0,0-.366-.769,1.9,1.9,0,0,0-.674-.562,2.229,2.229,0,0,0-1.03-.217,2.5,2.5,0,0,0-.8.139,2.432,2.432,0,0,0-.753.41,2.217,2.217,0,0,0-.559.671,1.869,1.869,0,0,0-.22.916v5.009a.264.264,0,0,1-.3.3h-.7q-.319,0-.319-.3v-8.012a.281.281,0,0,1,.088-.217.3.3,0,0,1,.21-.081h.7a.3.3,0,0,1,.227.088.293.293,0,0,1,.085.21Z" transform="translate(-470.346 -629.286)" fill="#757474"/>
      <path id="Path_237" data-name="Path 237" d="M576.525,636.777a.264.264,0,0,1-.3-.3v-.82a4.28,4.28,0,0,1-1.356.935,4.123,4.123,0,0,1-1.674.338,4.3,4.3,0,0,1-1.169-.159,4.468,4.468,0,0,1-1.061-.451,4.522,4.522,0,0,1-.9-.7,4.606,4.606,0,0,1-.7-.9,4.375,4.375,0,0,1-.454-1.061,4.429,4.429,0,0,1,0-2.352,4.449,4.449,0,0,1,.454-1.064,4.575,4.575,0,0,1,.7-.9,4.636,4.636,0,0,1,.9-.7,4.393,4.393,0,0,1,1.058-.454,4.277,4.277,0,0,1,1.173-.159,4.082,4.082,0,0,1,1.674.343,4.322,4.322,0,0,1,1.356.939v-3.4a.294.294,0,0,1,.085-.21.3.3,0,0,1,.227-.088h.7a.3.3,0,0,1,.21.081.281.281,0,0,1,.088.217v10.568q0,.3-.319.3Zm-.23-4.291a3.119,3.119,0,0,0-.244-1.213,3.381,3.381,0,0,0-.664-1.027,3.214,3.214,0,0,0-.985-.708,2.8,2.8,0,0,0-1.2-.265,2.758,2.758,0,0,0-1.195.265,3.189,3.189,0,0,0-.975.708,3.347,3.347,0,0,0-.657,1.027,3.2,3.2,0,0,0,0,2.434,3.253,3.253,0,0,0,.657,1.01,3.194,3.194,0,0,0,.975.691,2.822,2.822,0,0,0,1.195.257,2.87,2.87,0,0,0,1.2-.257,3.22,3.22,0,0,0,.985-.691,3.287,3.287,0,0,0,.664-1.01A3.105,3.105,0,0,0,576.294,632.486Z" transform="translate(-483.294 -625.606)" fill="#757474"/>
      <path id="Path_238" data-name="Path 238" d="M611.743,630.351c-.063-.041-.167-.12-.312-.238a4.2,4.2,0,0,0-.531-.359,4.6,4.6,0,0,0-.709-.329,2.429,2.429,0,0,0-.847-.146,2.93,2.93,0,0,0-.922.128,1.9,1.9,0,0,0-.638.342,1.36,1.36,0,0,0-.37.481,1.323,1.323,0,0,0-.118.539.879.879,0,0,0,.25.637,2.183,2.183,0,0,0,.664.448,6.859,6.859,0,0,0,.939.342q.525.152,1.071.322t1.071.38a4.028,4.028,0,0,1,.939.522,2.5,2.5,0,0,1,.665.746,2.068,2.068,0,0,1,.251,1.051,2.8,2.8,0,0,1-.295,1.291,3,3,0,0,1-.807.99,3.757,3.757,0,0,1-1.2.633,4.807,4.807,0,0,1-1.484.224,4.686,4.686,0,0,1-1.047-.119,4.8,4.8,0,0,1-1-.346,4.665,4.665,0,0,1-.891-.553,4.27,4.27,0,0,1-.739-.745.327.327,0,0,1-.085-.217.28.28,0,0,1,.119-.2l.535-.448a.31.31,0,0,1,.224-.085.288.288,0,0,1,.2.118l.088.088a3.161,3.161,0,0,0,.647.553,4.7,4.7,0,0,0,.725.386,4.135,4.135,0,0,0,.695.227,2.627,2.627,0,0,0,.563.075,3.475,3.475,0,0,0,.847-.108,2.748,2.748,0,0,0,.793-.332,1.934,1.934,0,0,0,.589-.566,1.4,1.4,0,0,0,.231-.8.977.977,0,0,0-.227-.654,2,2,0,0,0-.613-.468,5.483,5.483,0,0,0-.9-.359q-.519-.159-1.108-.335a11.03,11.03,0,0,1-1.4-.5,4.11,4.11,0,0,1-.959-.576,1.992,1.992,0,0,1-.552-.705,2.1,2.1,0,0,1-.177-.877,2.557,2.557,0,0,1,.247-1.129,2.6,2.6,0,0,1,.7-.885,3.315,3.315,0,0,1,1.095-.58,4.671,4.671,0,0,1,1.434-.206,3.9,3.9,0,0,1,.888.108,5.164,5.164,0,0,1,.9.3,4.844,4.844,0,0,1,.82.461,3.49,3.49,0,0,1,.661.593.327.327,0,0,1,.1.213.281.281,0,0,1-.1.213l-.481.461a.3.3,0,0,1-.22.095A.317.317,0,0,1,611.743,630.351Z" transform="translate(-505.523 -627.05)" fill="#757474"/>
      <path id="Path_239" data-name="Path 239" d="M630.554,636.479a.264.264,0,0,1-.3.3h-.7q-.318,0-.318-.3V625.911a.28.28,0,0,1,.088-.217.3.3,0,0,1,.21-.081h.705a.3.3,0,0,1,.227.088.293.293,0,0,1,.084.21Z" transform="translate(-519.786 -625.606)" fill="#757474"/>
      <path id="Path_240" data-name="Path 240" d="M643.589,638.474a1.182,1.182,0,0,1,.132-.1.228.228,0,0,1,.342.075c.091.122.164.221.221.3s.1.138.139.183.064.086.081.108a.4.4,0,0,1,.054.084.233.233,0,0,1,.02.1.289.289,0,0,1-.057.159,1.018,1.018,0,0,1-.2.2,5.316,5.316,0,0,1-.607.417,4.582,4.582,0,0,1-.661.323,4.327,4.327,0,0,1-2.7.125,4.468,4.468,0,0,1-1.061-.454,4.66,4.66,0,0,1-1.617-1.6,4.406,4.406,0,0,1-.461-1.061,4.226,4.226,0,0,1-.163-1.176,4.523,4.523,0,0,1,.586-2.244,4.327,4.327,0,0,1,1.58-1.6,4.45,4.45,0,0,1,1.077-.451,4.594,4.594,0,0,1,1.223-.16,4.518,4.518,0,0,1,1.01.115,4.658,4.658,0,0,1,.962.336,4.383,4.383,0,0,1,.864.545,4.288,4.288,0,0,1,.722.746,4.032,4.032,0,0,1,.644,1.329,6.022,6.022,0,0,1,.2,1.715q0,.318-.3.319h-7.145a3.092,3.092,0,0,0,.4,1,3.419,3.419,0,0,0,.691.8,3.148,3.148,0,0,0,.9.536,2.8,2.8,0,0,0,1.023.193,2.933,2.933,0,0,0,.674-.071,2.728,2.728,0,0,0,.549-.19,2.947,2.947,0,0,0,.457-.271q.21-.153.407-.315Zm-3.715-5.016a3.412,3.412,0,0,0-.888.871,3.1,3.1,0,0,0-.508,1.156h6.128a2.654,2.654,0,0,0-.349-1.024,2.831,2.831,0,0,0-.688-.786,3.162,3.162,0,0,0-.932-.5,3.255,3.255,0,0,0-1.074-.18,3.364,3.364,0,0,0-.871.115A3.076,3.076,0,0,0,639.874,633.458Z" transform="translate(-524.497 -629.276)" fill="#757474"/>
      <path id="Path_241" data-name="Path 241" d="M669.476,638.474a1.155,1.155,0,0,1,.132-.1.228.228,0,0,1,.342.075l.221.3c.056.077.1.138.139.183s.063.086.081.108a.4.4,0,0,1,.054.084.234.234,0,0,1,.02.1.289.289,0,0,1-.058.159,1.024,1.024,0,0,1-.2.2,5.311,5.311,0,0,1-.607.417,4.588,4.588,0,0,1-.661.323,4.327,4.327,0,0,1-2.7.125,4.462,4.462,0,0,1-1.061-.454,4.659,4.659,0,0,1-1.617-1.6,4.422,4.422,0,0,1-.461-1.061,4.239,4.239,0,0,1-.163-1.176,4.53,4.53,0,0,1,.586-2.244,4.331,4.331,0,0,1,1.579-1.6,4.451,4.451,0,0,1,1.078-.451,4.594,4.594,0,0,1,1.223-.16,4.519,4.519,0,0,1,1.01.115,4.664,4.664,0,0,1,.962.336,4.361,4.361,0,0,1,.864.545,4.27,4.27,0,0,1,.722.746,4.045,4.045,0,0,1,.644,1.329,6.049,6.049,0,0,1,.2,1.715q0,.318-.3.319h-7.145a3.084,3.084,0,0,0,.4,1,3.421,3.421,0,0,0,.691.8,3.15,3.15,0,0,0,.9.536,2.8,2.8,0,0,0,1.023.193,2.931,2.931,0,0,0,.674-.071,2.727,2.727,0,0,0,.549-.19,2.97,2.97,0,0,0,.457-.271q.21-.153.407-.315Zm-3.715-5.016a3.42,3.42,0,0,0-.888.871,3.1,3.1,0,0,0-.508,1.156h6.127a2.654,2.654,0,0,0-.349-1.024,2.839,2.839,0,0,0-.688-.786,3.172,3.172,0,0,0-.932-.5,3.255,3.255,0,0,0-1.074-.18,3.364,3.364,0,0,0-.871.115A3.078,3.078,0,0,0,665.76,633.458Z" transform="translate(-540.114 -629.276)" fill="#757474"/>
      <path id="Path_242" data-name="Path 242" d="M691.2,632.926a4.329,4.329,0,0,1,1.357-.939,4.093,4.093,0,0,1,1.676-.342,4.287,4.287,0,0,1,1.174.159,4.474,4.474,0,0,1,1.058.451,4.526,4.526,0,0,1,.9.7,4.61,4.61,0,0,1,.7.9,4.346,4.346,0,0,1,.614,2.237,4.312,4.312,0,0,1-.159,1.176,4.426,4.426,0,0,1-.455,1.065,4.546,4.546,0,0,1-.7.9,4.6,4.6,0,0,1-.9.7,4.379,4.379,0,0,1-1.062.454,4.3,4.3,0,0,1-1.17.159,4.089,4.089,0,0,1-1.676-.343,4.324,4.324,0,0,1-1.357-.939v3.457a.291.291,0,0,1-.085.21.3.3,0,0,1-.227.088h-.7a.3.3,0,0,1-.21-.081.28.28,0,0,1-.088-.217V632.1q0-.3.318-.3h.7a.264.264,0,0,1,.3.3Zm-.068,3.166a3.112,3.112,0,0,0,.244,1.214,3.375,3.375,0,0,0,.664,1.027,3.224,3.224,0,0,0,.983.708,2.8,2.8,0,0,0,1.206.264,2.764,2.764,0,0,0,1.2-.264,3.2,3.2,0,0,0,.976-.708,3.357,3.357,0,0,0,.658-1.027,3.186,3.186,0,0,0,0-2.43,3.246,3.246,0,0,0-.658-1.014,3.2,3.2,0,0,0-.976-.692,2.831,2.831,0,0,0-1.2-.257,2.869,2.869,0,0,0-1.206.257,3.23,3.23,0,0,0-.983.692,3.264,3.264,0,0,0-.664,1.014A3.1,3.1,0,0,0,691.128,636.092Z" transform="translate(-556.371 -629.245)" fill="#757474"/>
      <path id="Path_243" data-name="Path 243" d="M717.817,626.592a.264.264,0,0,1-.3.3h-.7q-.318,0-.318-.3v-.7a.281.281,0,0,1,.088-.217.3.3,0,0,1,.21-.081h.7a.305.305,0,0,1,.227.085.289.289,0,0,1,.085.214Zm0,9.876a.264.264,0,0,1-.3.3h-.7q-.318,0-.318-.3v-8.012a.281.281,0,0,1,.088-.217.3.3,0,0,1,.21-.081h.7a.3.3,0,0,1,.227.088.293.293,0,0,1,.085.21Z" transform="translate(-572.432 -625.596)" fill="#757474"/>
      <path id="Path_244" data-name="Path 244" d="M726.651,632.987a4.717,4.717,0,0,1,.427-.464,3.12,3.12,0,0,1,.532-.407,2.955,2.955,0,0,1,.654-.292,2.723,2.723,0,0,1,.807-.112,3.539,3.539,0,0,1,1.471.288,3.056,3.056,0,0,1,1.068.787,3.381,3.381,0,0,1,.651,1.169,4.583,4.583,0,0,1,.22,1.437V640a.463.463,0,0,1-.118.346.418.418,0,0,1-.3.115h-.5q-.251,0-.322-.1a.612.612,0,0,1-.071-.339v-4.623a3.246,3.246,0,0,0-.112-.831,2.257,2.257,0,0,0-.366-.769,1.9,1.9,0,0,0-.674-.562,2.231,2.231,0,0,0-1.03-.217,2.5,2.5,0,0,0-.8.139,2.435,2.435,0,0,0-.752.41,2.219,2.219,0,0,0-.559.671,1.87,1.87,0,0,0-.22.916v5.009a.264.264,0,0,1-.3.3h-.7q-.318,0-.318-.3v-8.012a.281.281,0,0,1,.088-.217.3.3,0,0,1,.21-.081h.7a.3.3,0,0,1,.227.088.293.293,0,0,1,.085.21Z" transform="translate(-577.761 -629.286)" fill="#757474"/>
      <path id="Path_245" data-name="Path 245" d="M755.346,639.223a4.311,4.311,0,0,1-1.37.973,4.09,4.09,0,0,1-1.708.356,4.285,4.285,0,0,1-1.169-.159,4.368,4.368,0,0,1-1.061-.454,4.6,4.6,0,0,1-.9-.7,4.543,4.543,0,0,1-.7-.9,4.457,4.457,0,0,1-.454-1.065,4.429,4.429,0,0,1,0-2.352,4.386,4.386,0,0,1,.454-1.061,4.606,4.606,0,0,1,.7-.9,4.532,4.532,0,0,1,.9-.7,4.461,4.461,0,0,1,1.058-.451,4.276,4.276,0,0,1,1.173-.159,4.09,4.09,0,0,1,1.674.342,4.333,4.333,0,0,1,1.356.939V632.1a.264.264,0,0,1,.3-.3l.766.007a.262.262,0,0,1,.251.292v6.921a5.179,5.179,0,0,1-.173,1.393,3.983,3.983,0,0,1-.478,1.095,3.376,3.376,0,0,1-.728.814,3.967,3.967,0,0,1-.925.552,4.958,4.958,0,0,1-1.068.315,6.53,6.53,0,0,1-1.156.1,4.357,4.357,0,0,1-1.454-.23,5.038,5.038,0,0,1-1.163-.576.364.364,0,0,1-.111-.085.206.206,0,0,1-.044-.139.428.428,0,0,1,0-.054.162.162,0,0,1,.03-.068l.366-.59a.638.638,0,0,1,.1-.112.149.149,0,0,1,.1-.037.272.272,0,0,1,.163.054,1.593,1.593,0,0,0,.413.22,4.185,4.185,0,0,0,.552.166q.295.068.587.105a4.1,4.1,0,0,0,.515.037,4.332,4.332,0,0,0,1.281-.18,3.132,3.132,0,0,0,1-.5,2.357,2.357,0,0,0,.657-.783,2.188,2.188,0,0,0,.237-1.02Zm.02-3.132a3.109,3.109,0,0,0-.244-1.217,3.26,3.26,0,0,0-.664-1.014,3.22,3.22,0,0,0-.985-.692,2.87,2.87,0,0,0-1.2-.257,2.824,2.824,0,0,0-1.2.257,3.2,3.2,0,0,0-.975.692,3.246,3.246,0,0,0-.657,1.014,3.192,3.192,0,0,0,0,2.43,3.357,3.357,0,0,0,.657,1.027,3.2,3.2,0,0,0,.975.708,2.757,2.757,0,0,0,1.2.264,2.8,2.8,0,0,0,1.2-.264,3.214,3.214,0,0,0,.985-.708,3.371,3.371,0,0,0,.664-1.027A3.117,3.117,0,0,0,755.366,636.092Z" transform="translate(-591.327 -629.245)" fill="#757474"/>
      <path id="Path_246" data-name="Path 246" d="M790.729,630.351c-.063-.041-.167-.12-.312-.238a4.194,4.194,0,0,0-.532-.359,4.578,4.578,0,0,0-.709-.329,2.426,2.426,0,0,0-.847-.146,2.932,2.932,0,0,0-.922.128,1.9,1.9,0,0,0-.638.342,1.358,1.358,0,0,0-.369.481,1.323,1.323,0,0,0-.119.539.878.878,0,0,0,.251.637,2.178,2.178,0,0,0,.664.448,6.817,6.817,0,0,0,.939.342q.525.152,1.071.322t1.071.38a4.028,4.028,0,0,1,.939.522,2.5,2.5,0,0,1,.664.746,2.066,2.066,0,0,1,.251,1.051,2.8,2.8,0,0,1-.295,1.291,3,3,0,0,1-.807.99,3.758,3.758,0,0,1-1.2.633,4.807,4.807,0,0,1-1.484.224,4.684,4.684,0,0,1-1.047-.119,4.81,4.81,0,0,1-1-.346,4.659,4.659,0,0,1-.891-.553,4.27,4.27,0,0,1-.739-.745.325.325,0,0,1-.085-.217.278.278,0,0,1,.119-.2l.535-.448a.31.31,0,0,1,.224-.085.29.29,0,0,1,.2.118l.088.088a3.165,3.165,0,0,0,.647.553,4.723,4.723,0,0,0,.725.386,4.161,4.161,0,0,0,.695.227,2.632,2.632,0,0,0,.563.075,3.472,3.472,0,0,0,.847-.108,2.75,2.75,0,0,0,.793-.332,1.928,1.928,0,0,0,.59-.566,1.4,1.4,0,0,0,.23-.8.977.977,0,0,0-.227-.654,2,2,0,0,0-.613-.468,5.482,5.482,0,0,0-.9-.359q-.519-.159-1.109-.335a11.036,11.036,0,0,1-1.4-.5,4.094,4.094,0,0,1-.959-.576,1.993,1.993,0,0,1-.553-.705,2.1,2.1,0,0,1-.176-.877,2.555,2.555,0,0,1,.247-1.129,2.6,2.6,0,0,1,.7-.885,3.319,3.319,0,0,1,1.095-.58,4.672,4.672,0,0,1,1.434-.206,3.9,3.9,0,0,1,.888.108,5.162,5.162,0,0,1,.9.3,4.849,4.849,0,0,1,.82.461,3.5,3.5,0,0,1,.661.593.326.326,0,0,1,.1.213.282.282,0,0,1-.105.213l-.481.461a.3.3,0,0,1-.221.095A.316.316,0,0,1,790.729,630.351Z" transform="translate(-613.506 -627.05)" fill="#757474"/>
      <path id="Path_247" data-name="Path 247" d="M809.574,632.926a4.329,4.329,0,0,1,1.357-.939,4.093,4.093,0,0,1,1.675-.342,4.282,4.282,0,0,1,1.174.159,4.455,4.455,0,0,1,1.058.451,4.525,4.525,0,0,1,.9.7,4.606,4.606,0,0,1,.7.9,4.373,4.373,0,0,1,.455,1.061,4.416,4.416,0,0,1,0,2.352,4.444,4.444,0,0,1-.455,1.065,4.542,4.542,0,0,1-.7.9,4.6,4.6,0,0,1-.9.7,4.367,4.367,0,0,1-1.061.454,4.3,4.3,0,0,1-1.171.159,4.089,4.089,0,0,1-1.675-.343,4.325,4.325,0,0,1-1.357-.939v3.457a.291.291,0,0,1-.085.21.3.3,0,0,1-.227.088h-.705a.3.3,0,0,1-.21-.081.28.28,0,0,1-.088-.217V632.1q0-.3.319-.3h.7a.264.264,0,0,1,.3.3Zm-.068,3.166a3.112,3.112,0,0,0,.244,1.214,3.366,3.366,0,0,0,.664,1.027,3.224,3.224,0,0,0,.983.708,2.8,2.8,0,0,0,1.206.264,2.764,2.764,0,0,0,1.2-.264,3.2,3.2,0,0,0,.976-.708,3.347,3.347,0,0,0,.657-1.027,3.181,3.181,0,0,0,0-2.43,3.236,3.236,0,0,0-.657-1.014,3.2,3.2,0,0,0-.976-.692,2.831,2.831,0,0,0-1.2-.257,2.869,2.869,0,0,0-1.206.257,3.217,3.217,0,0,0-1.647,1.705A3.1,3.1,0,0,0,809.506,636.092Z" transform="translate(-627.788 -629.245)" fill="#757474"/>
      <path id="Path_248" data-name="Path 248" d="M840.38,638.474a1.188,1.188,0,0,1,.132-.1.228.228,0,0,1,.342.075c.091.122.164.221.221.3s.1.138.139.183.064.086.081.108a.4.4,0,0,1,.054.084.234.234,0,0,1,.02.1.288.288,0,0,1-.058.159,1.015,1.015,0,0,1-.2.2,5.314,5.314,0,0,1-.607.417,4.585,4.585,0,0,1-.661.323,4.327,4.327,0,0,1-2.7.125,4.469,4.469,0,0,1-1.061-.454,4.66,4.66,0,0,1-1.617-1.6,4.4,4.4,0,0,1-.461-1.061,4.221,4.221,0,0,1-.163-1.176,4.56,4.56,0,0,1,.152-1.18,4.506,4.506,0,0,1,.434-1.064,4.328,4.328,0,0,1,1.58-1.6,4.448,4.448,0,0,1,1.077-.451,4.6,4.6,0,0,1,1.223-.16,4.518,4.518,0,0,1,1.01.115,4.656,4.656,0,0,1,.962.336,4.378,4.378,0,0,1,.865.545,4.288,4.288,0,0,1,.722.746,4.031,4.031,0,0,1,.644,1.329,6.024,6.024,0,0,1,.2,1.715q0,.318-.3.319h-7.145a3.092,3.092,0,0,0,.4,1,3.432,3.432,0,0,0,.691.8,3.15,3.15,0,0,0,.9.536,2.8,2.8,0,0,0,1.024.193,2.932,2.932,0,0,0,.674-.071,2.728,2.728,0,0,0,.549-.19,2.949,2.949,0,0,0,.457-.271q.21-.153.407-.315Zm-3.715-5.016a3.414,3.414,0,0,0-.888.871,3.1,3.1,0,0,0-.508,1.156H841.4a2.653,2.653,0,0,0-.349-1.024,2.829,2.829,0,0,0-.688-.786,3.161,3.161,0,0,0-.932-.5,3.255,3.255,0,0,0-1.074-.18,3.364,3.364,0,0,0-.871.115A3.077,3.077,0,0,0,836.665,633.458Z" transform="translate(-643.221 -629.276)" fill="#757474"/>
      <path id="Path_249" data-name="Path 249" d="M865.826,638.488c.032-.027.067-.055.1-.084a.41.41,0,0,1,.122-.065.212.212,0,0,1,.129,0,.3.3,0,0,1,.132.109l.221.3c.056.077.1.138.138.183s.064.086.081.108a.792.792,0,0,1,.058.109.185.185,0,0,1,.01.118.377.377,0,0,1-.07.142.962.962,0,0,1-.18.173,5.391,5.391,0,0,1-.607.417,4.6,4.6,0,0,1-.661.323,4.328,4.328,0,0,1-2.7.125,4.472,4.472,0,0,1-1.061-.454,4.662,4.662,0,0,1-1.617-1.6,4.408,4.408,0,0,1-.461-1.061,4.336,4.336,0,0,1,0-2.352,4.4,4.4,0,0,1,.461-1.061,4.659,4.659,0,0,1,1.617-1.6,4.462,4.462,0,0,1,1.061-.454,4.257,4.257,0,0,1,1.166-.16,4.04,4.04,0,0,1,.756.071,4.736,4.736,0,0,1,.725.2,4.6,4.6,0,0,1,.657.295,3.8,3.8,0,0,1,.553.366c.032.027.069.058.112.092a.523.523,0,0,1,.108.115.363.363,0,0,1,.058.142.257.257,0,0,1-.034.166l-.495.651q-.176.23-.407-.007a2.33,2.33,0,0,0-.42-.342,3.149,3.149,0,0,0-.508-.265,3.209,3.209,0,0,0-.563-.173,2.825,2.825,0,0,0-.576-.061,2.715,2.715,0,0,0-1.152.257,3.278,3.278,0,0,0-.983.7,3.473,3.473,0,0,0-.685,1.024,3.079,3.079,0,0,0,0,2.457,3.338,3.338,0,0,0,.681,1.014,3.271,3.271,0,0,0,.986.688,2.783,2.783,0,0,0,1.163.254,2.935,2.935,0,0,0,.674-.071,2.719,2.719,0,0,0,.549-.19,2.917,2.917,0,0,0,.458-.271Q865.629,638.65,865.826,638.488Z" transform="translate(-658.58 -629.276)" fill="#757474"/>
      <path id="Path_250" data-name="Path 250" d="M883.612,626.592a.264.264,0,0,1-.3.3h-.7q-.318,0-.318-.3v-.7a.281.281,0,0,1,.088-.217.3.3,0,0,1,.21-.081h.7a.305.305,0,0,1,.227.085.288.288,0,0,1,.085.214Zm0,9.876a.264.264,0,0,1-.3.3h-.7q-.318,0-.318-.3v-8.012a.281.281,0,0,1,.088-.217.3.3,0,0,1,.21-.081h.7a.3.3,0,0,1,.227.088.293.293,0,0,1,.085.21Z" transform="translate(-672.455 -625.596)" fill="#757474"/>
      <path id="Path_251" data-name="Path 251" d="M897.6,639.271a4.318,4.318,0,0,1-1.355.939,4.083,4.083,0,0,1-1.674.343,4.293,4.293,0,0,1-1.169-.159,4.368,4.368,0,0,1-1.061-.454,4.6,4.6,0,0,1-.9-.7,4.552,4.552,0,0,1-.7-.9,4.457,4.457,0,0,1-.454-1.065,4.426,4.426,0,0,1,0-2.352,4.386,4.386,0,0,1,.454-1.061,4.616,4.616,0,0,1,.7-.9,4.532,4.532,0,0,1,.9-.7,4.46,4.46,0,0,1,1.058-.451,4.275,4.275,0,0,1,1.173-.159,4.088,4.088,0,0,1,1.674.342,4.323,4.323,0,0,1,1.355.939V632.1a.264.264,0,0,1,.3-.3h.7q.319,0,.319.3v8.019a.28.28,0,0,1-.088.217.3.3,0,0,1-.21.081h-.7a.3.3,0,0,1-.227-.088.294.294,0,0,1-.085-.21Zm.068-3.179a3.11,3.11,0,0,0-.244-1.217,3.269,3.269,0,0,0-.664-1.014,3.219,3.219,0,0,0-.985-.692,2.87,2.87,0,0,0-1.2-.257,2.823,2.823,0,0,0-1.2.257,3.2,3.2,0,0,0-.975.692,3.236,3.236,0,0,0-.656,1.014,3.186,3.186,0,0,0,0,2.43,3.347,3.347,0,0,0,.656,1.027,3.19,3.19,0,0,0,.975.708,2.756,2.756,0,0,0,1.2.264,2.8,2.8,0,0,0,1.2-.264,3.213,3.213,0,0,0,.985-.708,3.381,3.381,0,0,0,.664-1.027A3.118,3.118,0,0,0,897.667,636.092Z" transform="translate(-677.177 -629.245)" fill="#757474"/>
      <path id="Path_252" data-name="Path 252" d="M918.47,636.479a.264.264,0,0,1-.3.3h-.7q-.318,0-.319-.3V625.911a.281.281,0,0,1,.088-.217.3.3,0,0,1,.21-.081h.7a.3.3,0,0,1,.227.088.293.293,0,0,1,.085.21Z" transform="translate(-693.485 -625.606)" fill="#757474"/>
      <path id="Path_253" data-name="Path 253" d="M927.321,626.592a.264.264,0,0,1-.3.3h-.7q-.318,0-.318-.3v-.7a.282.282,0,0,1,.088-.217.3.3,0,0,1,.21-.081h.7a.305.305,0,0,1,.227.085.288.288,0,0,1,.085.214Zm0,9.876a.264.264,0,0,1-.3.3h-.7q-.318,0-.318-.3v-8.012a.281.281,0,0,1,.088-.217.3.3,0,0,1,.21-.081h.7a.3.3,0,0,1,.227.088.293.293,0,0,1,.085.21Z" transform="translate(-698.825 -625.596)" fill="#757474"/>
      <path id="Path_254" data-name="Path 254" d="M933.152,638.756a1.529,1.529,0,0,1-.047-.166.186.186,0,0,1,0-.109.2.2,0,0,1,.054-.078.472.472,0,0,1,.105-.068l.644-.3a.24.24,0,0,1,.264.017.6.6,0,0,1,.149.207,1.207,1.207,0,0,0,.322.464,2.125,2.125,0,0,0,.478.329,2.513,2.513,0,0,0,.522.193,1.972,1.972,0,0,0,.455.064,2.47,2.47,0,0,0,.569-.075,2.209,2.209,0,0,0,.587-.231,1.49,1.49,0,0,0,.461-.4.949.949,0,0,0,.186-.587.927.927,0,0,0-.177-.589,1.379,1.379,0,0,0-.457-.369,2.947,2.947,0,0,0-.63-.234q-.349-.088-.7-.183a6.022,6.022,0,0,1-1.088-.4,3.416,3.416,0,0,1-.814-.543,2.12,2.12,0,0,1-.512-.705,2.17,2.17,0,0,1-.176-.891,2.3,2.3,0,0,1,.21-.99,2.24,2.24,0,0,1,.586-.766,2.723,2.723,0,0,1,.9-.5,3.644,3.644,0,0,1,1.163-.176,3.722,3.722,0,0,1,.9.095,2.25,2.25,0,0,1,.668.282,2.579,2.579,0,0,1,.536.461q.244.275.508.634a.552.552,0,0,1,.088.234.235.235,0,0,1-.122.193l-.529.4q-.156.088-.237.048a.587.587,0,0,1-.176-.156q-.156-.183-.305-.352a1.868,1.868,0,0,0-.339-.3,1.6,1.6,0,0,0-.43-.21,1.87,1.87,0,0,0-.573-.078,2.421,2.421,0,0,0-.576.068,1.52,1.52,0,0,0-.5.217,1.142,1.142,0,0,0-.353.376,1.051,1.051,0,0,0-.132.539.679.679,0,0,0,.163.437,1.755,1.755,0,0,0,.413.363,2.945,2.945,0,0,0,.549.278,4.533,4.533,0,0,0,.576.183,6.9,6.9,0,0,1,1.176.38,3.7,3.7,0,0,1,.912.549,2.3,2.3,0,0,1,.589.742,2.131,2.131,0,0,1,.21.959,2.355,2.355,0,0,1-.234,1.061,2.321,2.321,0,0,1-.651.8,3,3,0,0,1-.993.5,4.273,4.273,0,0,1-1.254.176,3.75,3.75,0,0,1-.878-.108,3.328,3.328,0,0,1-.851-.332,3.089,3.089,0,0,1-.725-.563A2.27,2.27,0,0,1,933.152,638.756Z" transform="translate(-703.103 -629.266)" fill="#757474"/>
      <path id="Path_255" data-name="Path 255" d="M953.714,637.948a2.706,2.706,0,0,1-.627-.075,1.517,1.517,0,0,1-.566-.261,1.379,1.379,0,0,1-.41-.508,1.855,1.855,0,0,1-.159-.824V630.4h-.786a.483.483,0,0,1-.251-.051q-.082-.051-.081-.227v-.63c0-.117.027-.191.081-.221a.547.547,0,0,1,.251-.044h.786v-1.444a.238.238,0,0,1,.047-.166.36.36,0,0,1,.163-.085,1.2,1.2,0,0,1,.166-.031c.083-.011.171-.026.261-.044l.352-.062a.388.388,0,0,1,.183.013.19.19,0,0,1,.1.081.309.309,0,0,1,.037.126c0,.047.007.1.007.152v1.457h.942a.323.323,0,0,1,.227.067.332.332,0,0,1,.071.244v.536a.357.357,0,0,1-.071.251.3.3,0,0,1-.227.075h-.942v5.864a.409.409,0,0,0,.115.332.488.488,0,0,0,.319.095.365.365,0,0,1,.258.095.343.343,0,0,1,.1.264v.556a.33.33,0,0,1-.1.247A.346.346,0,0,1,953.714,637.948Z" transform="translate(-713.803 -626.682)" fill="#757474"/>
      <path id="Path_256" data-name="Path 256" d="M961.978,638.756a1.721,1.721,0,0,1-.047-.166.19.19,0,0,1,0-.109.2.2,0,0,1,.054-.078.459.459,0,0,1,.1-.068l.644-.3a.24.24,0,0,1,.264.017.586.586,0,0,1,.149.207,1.207,1.207,0,0,0,.322.464,2.126,2.126,0,0,0,.478.329,2.523,2.523,0,0,0,.522.193,1.975,1.975,0,0,0,.455.064,2.47,2.47,0,0,0,.569-.075,2.207,2.207,0,0,0,.587-.231,1.484,1.484,0,0,0,.461-.4.947.947,0,0,0,.186-.587.927.927,0,0,0-.177-.589,1.375,1.375,0,0,0-.457-.369,2.947,2.947,0,0,0-.63-.234q-.349-.088-.7-.183a6.026,6.026,0,0,1-1.088-.4,3.415,3.415,0,0,1-.814-.543,2.12,2.12,0,0,1-.512-.705,2.17,2.17,0,0,1-.176-.891,2.3,2.3,0,0,1,.21-.99,2.238,2.238,0,0,1,.586-.766,2.725,2.725,0,0,1,.9-.5,3.647,3.647,0,0,1,1.163-.176,3.727,3.727,0,0,1,.9.095,2.252,2.252,0,0,1,.667.282,2.572,2.572,0,0,1,.536.461q.244.275.508.634a.552.552,0,0,1,.088.234.234.234,0,0,1-.122.193l-.529.4q-.156.088-.237.048a.586.586,0,0,1-.176-.156c-.1-.122-.206-.239-.3-.352a1.877,1.877,0,0,0-.339-.3,1.6,1.6,0,0,0-.43-.21,1.87,1.87,0,0,0-.573-.078,2.415,2.415,0,0,0-.576.068,1.518,1.518,0,0,0-.5.217,1.146,1.146,0,0,0-.353.376,1.051,1.051,0,0,0-.132.539.679.679,0,0,0,.163.437,1.762,1.762,0,0,0,.413.363,2.942,2.942,0,0,0,.549.278,4.526,4.526,0,0,0,.576.183,6.9,6.9,0,0,1,1.176.38,3.689,3.689,0,0,1,.912.549,2.289,2.289,0,0,1,.59.742,2.13,2.13,0,0,1,.21.959,2.36,2.36,0,0,1-.233,1.061,2.326,2.326,0,0,1-.651.8,3.006,3.006,0,0,1-.993.5,4.272,4.272,0,0,1-1.254.176,3.749,3.749,0,0,1-.878-.108,3.327,3.327,0,0,1-.851-.332,3.1,3.1,0,0,1-.725-.563A2.271,2.271,0,0,1,961.978,638.756Z" transform="translate(-720.494 -629.266)" fill="#757474"/>
    </g>
  </g>
</svg>
