<?xml version="1.0" encoding="utf-8"?>
<!-- Generator: Adobe Illustrator 23.1.1, SVG Export Plug-In . SVG Version: 6.00 Build 0)  -->
<svg version="1.1" id="Layer_1" xmlns="http://www.w3.org/2000/svg" xmlns:xlink="http://www.w3.org/1999/xlink" x="0px" y="0px"
	 viewBox="0 0 714.3 183.6" style="enable-background:new 0 0 714.3 183.6;" xml:space="preserve">
<style type="text/css">
	.st0{fill:#6C4DB5;}
	.st1{fill:#F7931E;}
	.st2{fill:#999999;}
	.st3{fill:#451775;}
	.st4{fill:#FFFFFF;}
</style>
<g>
	<g>
		<g>
			<path class="st0" d="M266.8,106.5h-23.5V20.1h26.2c10.3,0,17.5,0.5,21.6,1.4c4.1,0.9,7.7,2.6,10.6,4.8c3.4,2.6,6,5.9,7.8,9.9
				c1.8,4,2.7,8.4,2.7,13.2c0,5.2-0.9,9.7-2.6,13.6s-4.4,7.1-7.8,9.7c-2.6,1.9-5.7,3.2-9.2,4.1c-3.5,0.8-9.2,1.2-16.9,1.2h-4.3h-4.5
				V106.5z M266.8,59h4.8c6,0,10.2-0.8,12.6-2.3c2.4-1.6,3.6-4.2,3.6-7.9c0-3.6-1.2-6.2-3.5-7.7c-2.3-1.5-6.5-2.3-12.4-2.3h-5V59z"
				/>
		</g>
		<g>
			<path class="st0" d="M324.3,20.1h25v42.1c0,6.2,0.2,10.6,0.5,13.3c0.3,2.7,0.9,5,1.7,6.8c1,2.2,2.6,3.9,5,5.1
				c2.4,1.2,5.3,1.7,8.7,1.7c3.4,0,6.3-0.6,8.7-1.7c2.4-1.2,4.1-2.8,5.1-5.1c0.8-1.8,1.4-4.1,1.7-6.8c0.3-2.7,0.5-7.1,0.5-13.3v-5.9
				V20.1h25v45.7c0,9.5-0.6,16.5-1.8,21c-1.2,4.5-3.3,8.4-6.2,11.5c-3.1,3.5-7.5,6.1-12.9,7.9c-5.5,1.8-12.2,2.6-20,2.6
				c-7.9,0-14.6-0.9-20-2.6c-5.5-1.8-9.8-4.4-13-7.9c-2.9-3.2-4.9-7-6.1-11.5s-1.9-11.5-1.9-21v-9V20.1z"/>
		</g>
		<g>
			<path class="st0" d="M425.3,106.5V20.1h26.2c10.3,0,17.4,0.4,21.5,1.3c4,0.9,7.5,2.4,10.5,4.5c3.3,2.4,5.9,5.4,7.6,9
				c1.8,3.7,2.7,7.7,2.7,12.1c0,6.7-1.7,12.1-5.2,16.3c-3.5,4.2-8.6,7-15.3,8.4l25.1,34.9h-28.3l-21.1-33.8v33.8H425.3z M448.8,60.9
				h4.7c5.4,0,9.4-0.9,11.8-2.6c2.5-1.7,3.7-4.4,3.7-8.2c0-4.3-1.2-7.4-3.5-9.2c-2.3-1.8-6.2-2.7-11.7-2.7h-5V60.9z"/>
		</g>
		<g>
			<path class="st0" d="M531.3,106.5h-23.5V20.1H534c10.3,0,17.5,0.5,21.6,1.4c4.1,0.9,7.7,2.6,10.6,4.8c3.4,2.6,6,5.9,7.8,9.9
				c1.8,4,2.7,8.4,2.7,13.2c0,5.2-0.9,9.7-2.6,13.6c-1.8,3.9-4.4,7.1-7.8,9.7c-2.6,1.9-5.7,3.2-9.2,4.1c-3.5,0.8-9.2,1.2-16.9,1.2
				h-4.3h-4.5V106.5z M531.3,59h4.8c6,0,10.2-0.8,12.6-2.3c2.4-1.6,3.6-4.2,3.6-7.9c0-3.6-1.2-6.2-3.5-7.7
				c-2.3-1.5-6.5-2.3-12.4-2.3h-5V59z"/>
		</g>
		<g>
			<path class="st0" d="M589.4,106.5V20.1h25.1v66.3h31.2v20.2H589.4z"/>
		</g>
		<g>
			<path class="st0" d="M657.9,106.5V20.1h56.4v19h-31.9v15h30.1v18.5h-30.1v14.6h31.9v19.4H657.9z"/>
		</g>
	</g>
	<g>
		<path class="st1" d="M274.3,136.3c0,7.6-6.1,13.8-14,13.8h-6v11.2c0,0.9-0.5,1.4-1.4,1.4h-6.3c-0.9,0-1.4-0.5-1.4-1.4V124
			c0-0.9,0.5-1.4,1.4-1.4h7.7h6C268.1,122.6,274.3,128.7,274.3,136.3z M265.1,136.3c0-2.9-2.1-5.2-4.9-5.2h-6v10.3h6
			C263,141.5,265.1,139.3,265.1,136.3z"/>
		<path class="st1" d="M305.8,155.3v6c0,0.9-0.5,1.4-1.4,1.4h-19.8h-1.4c-0.9,0-1.4-0.5-1.4-1.4V124c0-0.9,0.5-1.4,1.4-1.4h7.7h13.2
			c0.9,0,1.4,0.5,1.4,1.4v6c0,0.9-0.5,1.4-1.4,1.4h-13.2v6.7h11.8c0.9,0,1.4,0.5,1.4,1.4v5.7c0,0.9-0.5,1.4-1.4,1.4h-11.8v7.2h13.5
			C305.3,153.9,305.8,154.4,305.8,155.3z"/>
		<path class="st1" d="M311.8,142.6c0-11.8,9.3-20.9,20.9-20.9s20.9,9.1,20.9,20.9s-9.3,20.9-20.9,20.9S311.8,154.5,311.8,142.6z
			 M344.4,142.6c0-7.2-5.2-11.9-11.7-11.9s-11.7,4.8-11.7,11.9c0,7.2,5.2,11.9,11.7,11.9S344.4,149.8,344.4,142.6z"/>
		<path class="st1" d="M390.8,136.3c0,7.6-6.1,13.8-14,13.8h-6v11.2c0,0.9-0.5,1.4-1.4,1.4H363c-0.9,0-1.4-0.5-1.4-1.4V124
			c0-0.9,0.5-1.4,1.4-1.4h7.7h6C384.7,122.6,390.8,128.7,390.8,136.3z M381.7,136.3c0-2.9-2.1-5.2-4.9-5.2h-6v10.3h6
			C379.6,141.5,381.7,139.3,381.7,136.3z"/>
		<path class="st1" d="M421.2,155.3v6c0,0.9-0.5,1.4-1.4,1.4h-16.9h-3.2c-0.9,0-1.4-0.5-1.4-1.4V124c0-0.9,0.5-1.4,1.4-1.4h6.3
			c0.9,0,1.4,0.5,1.4,1.4v29.9h12.3C420.7,153.9,421.2,154.4,421.2,155.3z"/>
		<path class="st1" d="M452.2,155.3v6c0,0.9-0.5,1.4-1.4,1.4H431h-1.4c-0.9,0-1.4-0.5-1.4-1.4V124c0-0.9,0.5-1.4,1.4-1.4h7.7h13.2
			c0.9,0,1.4,0.5,1.4,1.4v6c0,0.9-0.5,1.4-1.4,1.4h-13.2v6.7H449c0.9,0,1.4,0.5,1.4,1.4v5.7c0,0.9-0.5,1.4-1.4,1.4h-11.8v7.2h13.5
			C451.7,153.9,452.2,154.4,452.2,155.3z"/>
		<path class="st1" d="M501.5,155.3v6c0,0.9-0.5,1.4-1.4,1.4h-19.8h-1.4c-0.9,0-1.4-0.5-1.4-1.4V124c0-0.9,0.5-1.4,1.4-1.4h7.7h13.2
			c0.9,0,1.4,0.5,1.4,1.4v6c0,0.9-0.5,1.4-1.4,1.4h-13.2v6.7h11.8c0.9,0,1.4,0.5,1.4,1.4v5.7c0,0.9-0.5,1.4-1.4,1.4h-11.8v7.2h13.5
			C501,153.9,501.5,154.4,501.5,155.3z"/>
		<path class="st1" d="M542.2,162.7h-7.1c-0.8,0-1.4-0.3-1.6-1.2l-1.5-5.1H518l-1.5,5.1c-0.2,0.9-0.8,1.2-1.6,1.2h-7.1
			c-1,0-1.5-0.6-1.2-1.6l12.2-37.3c0.2-0.8,0.9-1.2,1.7-1.2h9.2c0.8,0,1.4,0.4,1.7,1.2l12.2,37.3
			C543.8,162.1,543.2,162.7,542.2,162.7z M529.5,147.8l-4.5-15.2l-4.5,15.2H529.5z"/>
		<path class="st1" d="M572,124v6c0,0.9-0.5,1.4-1.4,1.4h-7.7v29.9c0,0.9-0.5,1.4-1.4,1.4h-6.3c-0.9,0-1.4-0.5-1.4-1.4v-29.9h-7.7
			c-0.9,0-1.4-0.5-1.4-1.4v-6c0-0.9,0.5-1.4,1.4-1.4h16.9h7.7C571.5,122.6,572,123.1,572,124z"/>
		<path class="st1" d="M603,155.3v6c0,0.9-0.5,1.4-1.4,1.4h-19.8h-1.4c-0.9,0-1.4-0.5-1.4-1.4V124c0-0.9,0.5-1.4,1.4-1.4h7.7h13.2
			c0.9,0,1.4,0.5,1.4,1.4v6c0,0.9-0.5,1.4-1.4,1.4h-13.2v6.7h11.8c0.9,0,1.4,0.5,1.4,1.4v5.7c0,0.9-0.5,1.4-1.4,1.4h-11.8v7.2h13.5
			C602.5,153.9,603,154.4,603,155.3z"/>
		<path class="st1" d="M643.5,160.9c0.7,0.9,0.3,1.8-0.9,1.8h-7.3c-0.7,0-1.3-0.2-1.8-0.9l-9.8-12.3h-3.5v11.8
			c0,0.9-0.5,1.4-1.4,1.4h-6.3c-0.9,0-1.4-0.5-1.4-1.4V124c0-0.9,0.5-1.4,1.4-1.4h7.7h6.3c7.6,0,13.8,6.1,13.8,13.8
			c0,4.8-2.9,9.2-7.1,11.5L643.5,160.9L643.5,160.9z M620.2,141.5h6.3c2.5,0,4.6-2.2,4.6-5.2c0-2.9-2.1-5.2-4.6-5.2h-6.3V141.5z"/>
	</g>
</g>
<path class="st2" d="M471.4,99.1v2.8c0,1.6-0.5,2.6-1.5,2.9c-0.2,0.1-0.3,0-0.3-0.2v-0.3c0-0.1,0.1-0.2,0.2-0.3
	c0.5-0.3,0.7-0.9,0.7-2.1h-0.2c-0.2,0-0.3-0.1-0.3-0.3v-2.4c0-0.2,0.1-0.3,0.3-0.3h0.7C471.3,98.8,471.4,98.9,471.4,99.1z"/>
<g>
	<g>
		<path class="st1" d="M159,0H53L0,91.8l27.4,47.4l2.2,3.7l2.5,4.3l5.6,9.8L53,183.6h106l15.3-26.6l5.6-9.8l2.5-4.3l1.8-3.2l27.7-48
			L159,0z M181.6,128.8l-8.1,14.1l-2.5,4.3l-5.6,9.8l-10.8,18.8h-97L46.6,157l-5.6-9.8l-2.5-4.3l-8.3-14.4L9,91.8l48.5-84h97
			l48.5,84L181.6,128.8z"/>
	</g>
	<g>
		<path class="st0" d="M159.9,73.8V117h-18.5V95.9c0-6.6-5.4-11.9-11.9-11.9H79.2c-6.6,0-11.9,5.4-11.9,11.9V117H52.1V73.8H55
			c0.3-8.8,23.1-15.9,51.2-15.9s50.9,7.1,51.2,15.9H159.9z"/>
	</g>
	<g>
		<path class="st0" d="M178.6,123.8l-11,19.1h-123l-11.2-19.4c5.1-6.5,13.1-10.7,22-10.7h101C165.4,112.9,173.5,117.1,178.6,123.8z"
			/>
	</g>
	<g>
		<polygon class="st3" points="165,147.2 159.3,157 52.6,157 47,147.2 		"/>
	</g>
	<g>
		<path class="st0" d="M128.8,88.3h-22.9h-0.6H83.1c-5.2,0-9.4,4.2-9.4,9.4v1.4c0,5.2,4.2,9.4,9.4,9.4h22.2h0.6h22.9
			c5.2,0,9.4-4.2,9.4-9.4v-1.4C138.3,92.5,134.1,88.3,128.8,88.3z"/>
	</g>
	<rect x="104.2" y="86.3" class="st4" width="3.6" height="24.1"/>
</g>
</svg>
