<svg id="Capa_1" enable-background="new 0 0 512.011 512.011" height="512" viewBox="0 0 512.011 512.011" width="512" xmlns="http://www.w3.org/2000/svg"><path d="m0 61.464h512.011v389.083h-512.011z" fill="#1c78bf"/><path d="m256.006 61.464h256.006v389.083h-256.006z" fill="#09607d"/><path d="m213.959 274.756-213.957-162.588-.002-50.704h31.934l224.072 194.053z" fill="#ff3939"/><path d="m279.725 221.059-210.017-159.595h-69.708l256.006 194.053z" fill="#fff5f5"/><path d="m298.049 274.756 213.959-162.59v-50.702h-31.934l-224.071 194.053z" fill="#ebe1dc"/><path d="m232.284 221.059 210.017-159.595h69.707l-256.005 194.053z" fill="#d20000"/><path d="m298.567 237.255 213.444 162.199v51.093h-31.419l-224.071-194.053z" fill="#d20000"/><path d="m232.802 290.953 210.017 159.594h69.192l-255.49-194.053z" fill="#ebe1dc"/><path d="m213.959 237.255-213.957 162.588-.002 50.704h31.934l224.072-194.053z" fill="#fff5f5"/><path d="m279.725 290.953-210.017 159.594h-69.708l256.006-194.053z" fill="#ff3939"/><path d="m311.779 61.464v138.28h200.229v111.547h-200.229v139.256h-111.547v-139.256h-200.23v-111.547h200.23v-138.28z" fill="#ff3939"/><path d="m512.008 311.291v-111.547h-200.229v-138.28h-55.773v389.083h55.773v-139.256z" fill="#d20000"/><path d="m216.218 450.547h-31.972v-123.271h-184.244v-31.972h216.216z" fill="#fff5f5"/><path d="m216.218 215.73h-216.216v-31.973h184.244v-122.293h31.972z" fill="#fff5f5"/><g fill="#ebe1dc"><path d="m512.008 215.73h-216.215v-154.266h31.972v122.293h184.243z"/><path d="m327.765 450.547h-31.972v-155.243h216.215v31.972h-184.243z"/></g></svg>