<?xml version="1.0" encoding="utf-8"?>
<!-- Generator: Adobe Illustrator 23.1.1, SVG Export Plug-In . SVG Version: 6.00 Build 0)  -->
<svg version="1.1" id="Layer_1" xmlns="http://www.w3.org/2000/svg" xmlns:xlink="http://www.w3.org/1999/xlink" x="0px" y="0px"
	 viewBox="0 0 91.2 56" style="enable-background:new 0 0 91.2 56;" xml:space="preserve">
<style type="text/css">
	.st0{fill:#676767;}
</style>
<g>
	<rect x="6.8" y="21.2" class="st0" width="42.3" height="2.7"/>
	<rect y="13" class="st0" width="35.5" height="2.7"/>
	<rect y="29.4" class="st0" width="35.5" height="2.7"/>
	<path class="st0" d="M20.5,47.8H9.4c-1.4,0-2.7-0.6-3.6-1.7c-0.9-1.1-1.3-2.5-1.1-3.8l1-6.3l2.7,0.4l-1,6.3
		c-0.1,0.6,0.1,1.2,0.5,1.6c0.4,0.5,1,0.7,1.6,0.7h11.1V47.8z"/>
	<path class="st0" d="M54.4,47.8H36.9v-2.7h17.6c1,0,1.9-0.7,2-1.7l5.8-38.2c0.1-0.6-0.1-1.2-0.5-1.6c-0.4-0.5-1-0.7-1.6-0.7h-45
		c-1,0-1.9,0.7-2,1.7l-0.7,4.6L9.8,8.7l0.7-4.6C10.9,1.7,12.8,0,15.2,0h45c1.4,0,2.7,0.6,3.6,1.7c0.9,1.1,1.3,2.5,1.1,3.8l-5.8,38.2
		C58.8,46.1,56.8,47.8,54.4,47.8z"/>
	<path class="st0" d="M28.7,56c-5.3,0-9.6-4.3-9.6-9.6s4.3-9.6,9.6-9.6s9.6,4.3,9.6,9.6S34,56,28.7,56z M28.7,39.6
		c-3.8,0-6.8,3.1-6.8,6.8c0,3.8,3.1,6.8,6.8,6.8s6.8-3.1,6.8-6.8C35.5,42.7,32.4,39.6,28.7,39.6z"/>
	<path class="st0" d="M72.4,56c-5.3,0-9.6-4.3-9.6-9.6s4.3-9.6,9.6-9.6s9.6,4.3,9.6,9.6S77.7,56,72.4,56z M72.4,39.6
		c-3.8,0-6.8,3.1-6.8,6.8c0,3.8,3.1,6.8,6.8,6.8s6.8-3.1,6.8-6.8C79.2,42.7,76.2,39.6,72.4,39.6z"/>
	<path class="st0" d="M84.5,47.8h-3.9v-2.7h3.9c1,0,1.9-0.7,2-1.7l1.8-12c0.2-1.4-0.2-2.9-1-4.1l-9.5-12.7c-0.4-0.5-1-0.8-1.6-0.8
		H64l-5,31.4h5.2v2.7h-8.4l5.9-36.9h14.5c1.5,0,2.9,0.7,3.8,1.9l9.5,12.7c1.3,1.8,1.9,4,1.5,6.2l-1.8,12
		C88.8,46.1,86.9,47.8,84.5,47.8z"/>
	<path class="st0" d="M90.1,30h-18c-1.4,0-2.7-0.6-3.6-1.6c-0.9-1-1.3-2.4-1.2-3.7l0.9-7.8l2.7,0.3L70.1,25
		c-0.1,0.6,0.1,1.2,0.5,1.6c0.4,0.4,0.9,0.7,1.5,0.7h18V30z"/>
</g>
</svg>
