<?xml version="1.0" encoding="utf-8"?>
<!-- Generator: Adobe Illustrator 23.1.1, SVG Export Plug-In . SVG Version: 6.00 Build 0)  -->
<svg version="1.1" id="Layer_1" xmlns="http://www.w3.org/2000/svg" xmlns:xlink="http://www.w3.org/1999/xlink" x="0px" y="0px"
	 viewBox="0 0 88 69" style="enable-background:new 0 0 88 69;" xml:space="preserve">
<style type="text/css">
	.st0{fill:#676767;}
</style>
<g>
	<path class="st0" d="M57.8,16.4c-1,0-1.8,0.6-1.8,1.4c0,0.8,0.8,1.4,1.8,1.4c1,0,1.8-0.6,1.8-1.4C59.5,17,58.7,16.4,57.8,16.4z"/>
	<path class="st0" d="M50.9,21.8c-1,0-1.8,0.6-1.8,1.4c0,0.8,0.8,1.4,1.8,1.4c1,0,1.8-0.6,1.8-1.4C52.7,22.5,51.9,21.8,50.9,21.8z"
		/>
	<path class="st0" d="M64.6,10.9c-1,0-1.8,0.6-1.8,1.4c0,0.8,0.8,1.4,1.8,1.4c1,0,1.8-0.6,1.8-1.4C66.4,11.5,65.6,10.9,64.6,10.9z"
		/>
	<path class="st0" d="M76.6,1.4c0,0.8,0.8,1.4,1.8,1.4s1.8-0.6,1.8-1.4c0-0.8-0.8-1.4-1.8-1.4S76.6,0.6,76.6,1.4z"/>
	<path class="st0" d="M69.7,6.9c0,0.8,0.8,1.4,1.8,1.4c1,0,1.8-0.6,1.8-1.4c0-0.8-0.8-1.4-1.8-1.4C70.5,5.5,69.7,6.1,69.7,6.9z"/>
	<path class="st0" d="M44,27.3c-1,0-1.8,0.6-1.8,1.4c0,0.8,0.8,1.4,1.8,1.4c1,0,1.8-0.6,1.8-1.4C45.8,27.9,45,27.3,44,27.3z"/>
	<path class="st0" d="M30.3,16.4c-1,0-1.8,0.6-1.8,1.4c0,0.8,0.8,1.4,1.8,1.4c1,0,1.8-0.6,1.8-1.4C32.1,17,31.3,16.4,30.3,16.4z"/>
	<path class="st0" d="M37.1,21.8c-1,0-1.8,0.6-1.8,1.4c0,0.8,0.8,1.4,1.8,1.4c1,0,1.8-0.6,1.8-1.4C38.9,22.5,38.1,21.8,37.1,21.8z"
		/>
	<path class="st0" d="M23.4,10.9c-1,0-1.8,0.6-1.8,1.4c0,0.8,0.8,1.4,1.8,1.4c1,0,1.8-0.6,1.8-1.4C25.2,11.5,24.4,10.9,23.4,10.9z"
		/>
	<path class="st0" d="M7.9,1.4c0,0.8,0.8,1.4,1.8,1.4s1.8-0.6,1.8-1.4c0-0.8-0.8-1.4-1.8-1.4S7.9,0.6,7.9,1.4z"/>
	<path class="st0" d="M14.7,6.9c0,0.8,0.8,1.4,1.8,1.4c1,0,1.8-0.6,1.8-1.4c0-0.8-0.8-1.4-1.8-1.4C15.5,5.5,14.7,6.1,14.7,6.9z"/>
	<path class="st0" d="M37.1,10.9c-1,0-1.8,0.6-1.8,1.4c0,0.8,0.8,1.4,1.8,1.4c1,0,1.8-0.6,1.8-1.4C38.9,11.5,38.1,10.9,37.1,10.9z"
		/>
	<path class="st0" d="M44,16.4c-1,0-1.8,0.6-1.8,1.4c0,0.8,0.8,1.4,1.8,1.4c1,0,1.8-0.6,1.8-1.4C45.8,17,45,16.4,44,16.4z"/>
	<path class="st0" d="M30.3,5.5c-1,0-1.8,0.6-1.8,1.4c0,0.8,0.8,1.4,1.8,1.4c1,0,1.8-0.6,1.8-1.4C32.1,6.1,31.3,5.5,30.3,5.5z"/>
	<path class="st0" d="M23.4,0c-1,0-1.8,0.6-1.8,1.4c0,0.8,0.8,1.4,1.8,1.4c1,0,1.8-0.6,1.8-1.4C25.2,0.6,24.4,0,23.4,0z"/>
	<path class="st0" d="M44,5.5c-1,0-1.8,0.6-1.8,1.4c0,0.8,0.8,1.4,1.8,1.4c1,0,1.8-0.6,1.8-1.4C45.8,6.1,45,5.5,44,5.5z"/>
	<path class="st0" d="M50.9,10.9c-1,0-1.8,0.6-1.8,1.4c0,0.8,0.8,1.4,1.8,1.4c1,0,1.8-0.6,1.8-1.4C52.7,11.5,51.9,10.9,50.9,10.9z"
		/>
	<path class="st0" d="M37.1,0c-1,0-1.8,0.6-1.8,1.4c0,0.8,0.8,1.4,1.8,1.4c1,0,1.8-0.6,1.8-1.4C38.9,0.6,38.1,0,37.1,0z"/>
	<path class="st0" d="M50.9,0c-1,0-1.8,0.6-1.8,1.4c0,0.8,0.8,1.4,1.8,1.4c1,0,1.8-0.6,1.8-1.4C52.7,0.6,51.9,0,50.9,0z"/>
	<path class="st0" d="M57.8,5.5c-1,0-1.8,0.6-1.8,1.4c0,0.8,0.8,1.4,1.8,1.4c1,0,1.8-0.6,1.8-1.4C59.5,6.1,58.7,5.5,57.8,5.5z"/>
	<path class="st0" d="M64.6,0c-1,0-1.8,0.6-1.8,1.4c0,0.8,0.8,1.4,1.8,1.4c1,0,1.8-0.6,1.8-1.4C66.4,0.6,65.6,0,64.6,0z"/>
	<path class="st0" d="M85,36L50.6,63.2C47,66,41,66,37.5,63.2L3,36c-0.8-0.6-2-0.5-2.6,0.3c-0.6,0.8-0.5,2,0.3,2.6l34.4,27.2
		C37.5,68,40.7,69,44,69c3.3,0,6.5-1,8.9-2.9L87.3,39c0.8-0.6,1-1.8,0.3-2.6C87,35.5,85.8,35.4,85,36z"/>
	<path class="st0" d="M87.3,8.7c0.8-0.6,1-1.8,0.3-2.6c-0.6-0.8-1.8-1-2.6-0.3L48.4,34.7c-2.4,1.9-6.3,1.9-8.7,0L3,5.8
		C2.2,5.2,1,5.3,0.4,6.1c-0.6,0.8-0.5,2,0.3,2.6l6.9,5.4v15.2L3,25.8c-0.8-0.6-2-0.5-2.6,0.3c-0.6,0.8-0.5,2,0.3,2.6l18.5,14.6
		c0.2,0.2,0.4,0.3,0.6,0.5l17.6,13.8c1.8,1.4,4.2,2.2,6.7,2.2c2.5,0,4.9-0.8,6.7-2.2l17.6-13.8c0.2-0.1,0.4-0.3,0.6-0.5l18.5-14.6
		c0.8-0.6,1-1.8,0.3-2.6c-0.6-0.8-1.8-1-2.6-0.3l-4.7,3.7V14.3L87.3,8.7z M65.5,25.9v15.2l-8.4,6.7V32.6L65.5,25.9z M31,32.6v15.2
		l-8.4-6.7V25.9L31,32.6z M11.4,17.1l7.4,5.8c0,0,0,0,0,0.1v15.1l-7.4-5.8V17.1z M34.7,50.7V35.6l2.6,2.1c1.3,1.1,3,1.8,4.8,2.1
		v16.1c-0.9-0.2-1.8-0.6-2.5-1.2L34.7,50.7z M48.4,54.6c-0.7,0.6-1.6,0.9-2.5,1.2V39.7c1.8-0.3,3.5-1,4.8-2.1l2.6-2.1v15.2
		L48.4,54.6z M76.5,32.5l-7.2,5.7V23.1c0,0,0,0,0-0.1l7.2-5.7V32.5z"/>
</g>
</svg>
