<?xml version="1.0" encoding="utf-8"?>
<!-- Generator: Adobe Illustrator 23.1.1, SVG Export Plug-In . SVG Version: 6.00 Build 0)  -->
<svg version="1.1" id="Layer_1" xmlns="http://www.w3.org/2000/svg" xmlns:xlink="http://www.w3.org/1999/xlink" x="0px" y="0px"
	 viewBox="0 0 88 88" style="enable-background:new 0 0 88 88;" xml:space="preserve">
<style type="text/css">
	.st0{fill:#676767;}
</style>
<g>
	<path class="st0" d="M87.4,35.9l-4.6-4.5l1.1-6.3c0.2-0.9-0.3-1.8-1.1-2.2L77,20.1l-0.9-6.4c-0.1-0.9-0.8-1.6-1.7-1.7L68,11.1
		l-2.8-5.8C64.8,4.4,63.9,4,63,4.1l-6.3,1.1l-4.5-4.6c-0.6-0.7-1.6-0.8-2.4-0.4l-5.7,3l-5.7-3c-0.8-0.4-1.8-0.3-2.4,0.4l-4.5,4.6
		l-6.3-1.1c-0.9-0.2-1.8,0.3-2.2,1.1l-2.8,5.8l-6.4,0.9c-0.9,0.1-1.6,0.8-1.7,1.7l-0.9,6.4l-5.8,2.8c-0.8,0.4-1.3,1.3-1.1,2.2
		l1.1,6.3l-4.6,4.5c-0.7,0.6-0.8,1.6-0.4,2.4l3,5.7l-3,5.7c-0.4,0.8-0.3,1.8,0.4,2.4l4.6,4.5L4.1,63c-0.2,0.9,0.3,1.8,1.1,2.2
		l5.8,2.8l0.9,6.4c0.1,0.9,0.8,1.6,1.7,1.7l6.4,0.9l2.8,5.8c0.4,0.8,1.3,1.3,2.2,1.1l6.3-1.1l4.5,4.6c0.6,0.7,1.6,0.8,2.4,0.4l5.7-3
		l5.7,3c0.3,0.2,0.6,0.2,1,0.2c0.5,0,1.1-0.2,1.5-0.6l4.5-4.6l6.3,1.1c0.9,0.2,1.8-0.3,2.2-1.1L68,77l6.4-0.9
		c0.9-0.1,1.6-0.8,1.7-1.7L77,68l5.8-2.8c0.8-0.4,1.3-1.3,1.1-2.2l-1.1-6.3l4.6-4.5c0.7-0.6,0.8-1.6,0.4-2.4l-3-5.7l3-5.7
		C88.2,37.5,88.1,36.5,87.4,35.9z M80.6,43.1c-0.3,0.6-0.3,1.3,0,1.9l2.8,5.3l-4.3,4.2c-0.5,0.5-0.7,1.2-0.6,1.8l1.1,5.9l-5.4,2.6
		c-0.6,0.3-1,0.9-1.1,1.6l-0.8,5.9l-5.9,0.8c-0.7,0.1-1.3,0.5-1.6,1.1l-2.6,5.4l-5.9-1.1c-0.7-0.1-1.4,0.1-1.8,0.6l-4.2,4.3L45,80.6
		c-0.3-0.2-0.6-0.2-1-0.2s-0.7,0.1-1,0.2l-5.3,2.8l-4.2-4.3c-0.5-0.5-1.2-0.7-1.8-0.6l-5.9,1.1l-2.6-5.4c-0.3-0.6-0.9-1-1.6-1.1
		l-5.9-0.8L15,66.3c-0.1-0.7-0.5-1.3-1.1-1.6l-5.4-2.6l1.1-5.9c0.1-0.7-0.1-1.4-0.6-1.8l-4.3-4.2L7.4,45c0.3-0.6,0.3-1.3,0-1.9
		l-2.8-5.3l4.3-4.2c0.5-0.5,0.7-1.2,0.6-1.8l-1.1-5.9l5.4-2.6c0.6-0.3,1-0.9,1.1-1.6l0.8-5.9l5.9-0.8c0.7-0.1,1.3-0.5,1.6-1.1
		l2.6-5.4l5.9,1.1c0.7,0.1,1.4-0.1,1.8-0.6l4.2-4.3l5.3,2.8c0.6,0.3,1.3,0.3,1.9,0l5.3-2.8l4.2,4.3c0.5,0.5,1.2,0.7,1.8,0.6l5.9-1.1
		l2.6,5.4c0.3,0.6,0.9,1,1.6,1.1l5.9,0.8l0.8,5.9c0.1,0.7,0.5,1.3,1.1,1.6l5.4,2.6l-1.1,5.9c-0.1,0.7,0.1,1.4,0.6,1.8l4.3,4.2
		L80.6,43.1z"/>
	<path class="st0" d="M44,11.3c-8.7,0-16.9,3.4-23.1,9.6c-6.2,6.2-9.6,14.4-9.6,23.1s3.4,16.9,9.6,23.1c6.2,6.2,14.4,9.6,23.1,9.6
		s16.9-3.4,23.1-9.6c6.2-6.2,9.6-14.4,9.6-23.1s-3.4-16.9-9.6-23.1C61,14.7,52.8,11.3,44,11.3z M44,72.6c-7.6,0-14.8-3-20.2-8.4
		c-5.4-5.4-8.4-12.6-8.4-20.2s3-14.8,8.4-20.2c5.4-5.4,12.6-8.4,20.2-8.4s14.8,3,20.2,8.4c5.4,5.4,8.4,12.6,8.4,20.2
		s-3,14.8-8.4,20.2C58.8,69.7,51.7,72.6,44,72.6z"/>
	<polygon class="st0" points="38.9,49.1 38.9,26.4 34.4,26.4 27.1,32.7 29.8,35.8 34.3,31.8 34.3,49.1 	"/>
	<path class="st0" d="M57.8,45.6c0.6-1.1,1.1-2.4,1.3-3.8c0.2-1.4,0.4-2.7,0.4-4.1c0-1.3-0.1-2.7-0.4-4.1c-0.2-1.4-0.7-2.6-1.3-3.8
		c-0.6-1.1-1.5-2-2.6-2.8c-1.1-0.7-2.5-1.1-4.2-1.1c-1.7,0-3.1,0.4-4.2,1.1c-1.1,0.7-1.9,1.6-2.6,2.8c-0.6,1.1-1.1,2.4-1.3,3.8
		c-0.2,1.4-0.4,2.7-0.4,4.1c0,1.3,0.1,2.7,0.4,4.1c0.2,1.4,0.7,2.6,1.3,3.8c0.6,1.1,1.5,2,2.6,2.8c1.1,0.7,2.5,1.1,4.2,1.1
		c1.7,0,3.1-0.4,4.2-1.1C56.3,47.7,57.2,46.7,57.8,45.6z M54.6,39.9c-0.1,0.8-0.2,1.6-0.4,2.4c-0.2,0.8-0.6,1.4-1.1,1.9
		c-0.5,0.5-1.2,0.8-2,0.8c-0.9,0-1.5-0.3-2-0.8c-0.5-0.5-0.8-1.2-1.1-1.9c-0.2-0.8-0.4-1.6-0.4-2.4c-0.1-0.8-0.1-1.5-0.1-2.1
		c0-0.6,0-1.3,0.1-2.1c0.1-0.8,0.2-1.6,0.4-2.4c0.2-0.8,0.6-1.4,1.1-1.9c0.5-0.5,1.2-0.8,2-0.8c0.9,0,1.5,0.3,2,0.8
		c0.5,0.5,0.9,1.2,1.1,1.9c0.2,0.8,0.4,1.6,0.4,2.4c0.1,0.8,0.1,1.5,0.1,2.1C54.7,38.3,54.7,39.1,54.6,39.9z"/>
	<polygon class="st0" points="30,57.2 28.4,54.4 26.3,54.4 29.2,58.8 29.2,62.1 30.9,62.1 30.9,58.8 33.8,54.4 31.8,54.4 	"/>
	<polygon class="st0" points="36,58.9 39.4,58.9 39.4,57.4 36,57.4 36,55.9 39.6,55.9 39.6,54.4 34.3,54.4 34.3,62.1 39.8,62.1 
		39.8,60.5 36,60.5 	"/>
	<path class="st0" d="M43.5,54.4l-3.3,7.7h1.9l0.6-1.6h3l0.7,1.6h1.9L45,54.4H43.5z M43.3,59l0.9-2.4l0.9,2.4H43.3z"/>
	<path class="st0" d="M54.5,58.1c0.3-0.4,0.4-0.8,0.4-1.4c0-0.5-0.1-0.8-0.2-1.1c-0.2-0.3-0.4-0.5-0.6-0.7c-0.3-0.2-0.6-0.3-0.9-0.4
		c-0.4-0.1-0.7-0.1-1.1-0.1h-3v7.7h1.7V59h0.8l1.6,3.1h2l-2-3.3C53.8,58.7,54.2,58.5,54.5,58.1z M53,57.2c-0.1,0.1-0.2,0.2-0.3,0.3
		c-0.1,0.1-0.3,0.1-0.5,0.1c-0.2,0-0.3,0-0.5,0h-1v-1.8h1.1c0.2,0,0.3,0,0.5,0c0.2,0,0.3,0.1,0.4,0.1c0.1,0.1,0.2,0.2,0.3,0.3
		c0.1,0.1,0.1,0.3,0.1,0.5C53.1,56.9,53.1,57.1,53,57.2z"/>
	<path class="st0" d="M60,58c-0.3-0.2-0.6-0.3-0.9-0.4c-0.3-0.1-0.6-0.2-0.9-0.3c-0.3-0.1-0.5-0.2-0.7-0.3c-0.2-0.1-0.3-0.3-0.3-0.5
		c0-0.1,0-0.3,0.1-0.4c0.1-0.1,0.2-0.2,0.3-0.2c0.1-0.1,0.2-0.1,0.4-0.1c0.1,0,0.3,0,0.4,0c0.2,0,0.4,0,0.7,0.1
		c0.2,0.1,0.4,0.2,0.6,0.4l1.2-1.3c-0.3-0.3-0.7-0.5-1.1-0.6c-0.4-0.1-0.8-0.2-1.3-0.2c-0.4,0-0.7,0.1-1.1,0.2
		c-0.4,0.1-0.7,0.3-0.9,0.5c-0.3,0.2-0.5,0.5-0.7,0.8c-0.2,0.3-0.2,0.7-0.2,1.1c0,0.4,0.1,0.8,0.3,1c0.2,0.3,0.4,0.5,0.7,0.6
		c0.3,0.2,0.6,0.3,0.9,0.4c0.3,0.1,0.6,0.2,0.9,0.3c0.3,0.1,0.5,0.2,0.7,0.3c0.2,0.1,0.3,0.3,0.3,0.6c0,0.1,0,0.3-0.1,0.4
		c-0.1,0.1-0.2,0.2-0.3,0.3c-0.1,0.1-0.2,0.1-0.4,0.1s-0.3,0-0.4,0c-0.3,0-0.6-0.1-0.8-0.2c-0.3-0.1-0.5-0.3-0.7-0.5l-1.2,1.3
		c0.4,0.3,0.8,0.6,1.2,0.7c0.4,0.2,0.9,0.2,1.4,0.2c0.4,0,0.8-0.1,1.1-0.2c0.4-0.1,0.7-0.3,0.9-0.5c0.3-0.2,0.5-0.5,0.6-0.8
		c0.2-0.3,0.2-0.7,0.2-1.1c0-0.5-0.1-0.8-0.3-1.1C60.5,58.4,60.3,58.2,60,58z"/>
</g>
</svg>
